<svg xmlns="http://www.w3.org/2000/svg" xmlns:xlink="http://www.w3.org/1999/xlink" width="500" zoomAndPan="magnify" viewBox="0 0 375 374.999991" height="500" preserveAspectRatio="xMidYMid meet" version="1.0"><defs><clipPath id="id1"><path d="M 104 178 L 271 178 L 271 344.515625 L 104 344.515625 Z M 104 178 " clip-rule="nonzero"/></clipPath><clipPath id="id2"><path d="M 184 251 L 191 251 L 191 344.515625 L 184 344.515625 Z M 184 251 " clip-rule="nonzero"/></clipPath><clipPath id="id3"><path d="M 203 67 L 369.476562 67 L 369.476562 111 L 203 111 Z M 203 67 " clip-rule="nonzero"/></clipPath><clipPath id="id4"><path d="M 203 30.265625 L 369.476562 30.265625 L 369.476562 197 L 203 197 Z M 203 30.265625 " clip-rule="nonzero"/></clipPath><clipPath id="id5"><path d="M 6 30.265625 L 173 30.265625 L 173 197 L 6 197 Z M 6 30.265625 " clip-rule="nonzero"/></clipPath></defs><path fill="#ffffff" d="M 187.910156 258.082031 C 187.476562 258.082031 187.019531 257.988281 186.613281 257.796875 L 106.597656 220.914062 C 105.058594 220.214844 104.386719 218.367188 105.109375 216.832031 C 105.804688 215.292969 107.65625 214.621094 109.195312 215.34375 L 187.910156 251.625 L 266.625 215.34375 C 268.164062 214.621094 269.992188 215.292969 270.710938 216.832031 C 271.433594 218.367188 270.757812 220.214844 269.222656 220.914062 L 189.207031 257.796875 C 188.800781 257.988281 188.34375 258.082031 187.910156 258.082031 " fill-opacity="1" fill-rule="nonzero"/><g clip-path="url(#id1)"><path fill="#ffffff" d="M 110.976562 302.21875 L 187.910156 337.683594 L 264.84375 302.21875 L 264.84375 220.097656 L 187.910156 184.628906 L 110.976562 220.097656 Z M 187.910156 344.144531 C 187.476562 344.144531 187.019531 344.046875 186.613281 343.855469 L 106.597656 306.972656 C 105.515625 306.46875 104.820312 305.386719 104.820312 304.1875 L 104.820312 218.128906 C 104.820312 216.925781 105.515625 215.847656 106.597656 215.34375 L 186.613281 178.460938 C 187.429688 178.074219 188.390625 178.074219 189.207031 178.460938 L 269.222656 215.34375 C 270.304688 215.847656 271 216.925781 271 218.128906 L 271 304.1875 C 271 305.386719 270.304688 306.46875 269.222656 306.972656 L 189.207031 343.855469 C 188.800781 344.046875 188.34375 344.144531 187.910156 344.144531 " fill-opacity="1" fill-rule="nonzero"/></g><g clip-path="url(#id2)"><path fill="#ffffff" d="M 187.910156 344.144531 C 186.203125 344.144531 184.832031 342.773438 184.832031 341.070312 L 184.832031 255.011719 C 184.832031 253.304688 186.203125 251.9375 187.910156 251.9375 C 189.617188 251.9375 190.988281 253.304688 190.988281 255.011719 L 190.988281 341.070312 C 190.988281 342.773438 189.617188 344.144531 187.910156 344.144531 " fill-opacity="1" fill-rule="nonzero"/></g><path fill="#ffffff" d="M 144.828125 264.230469 C 143.121094 264.230469 141.75 262.863281 141.75 261.15625 L 141.75 236.570312 C 141.75 235.367188 142.445312 234.289062 143.527344 233.78125 L 223.539062 196.902344 C 225.078125 196.179688 226.90625 196.851562 227.628906 198.390625 C 228.347656 199.925781 227.675781 201.773438 226.136719 202.472656 L 147.902344 238.539062 L 147.902344 261.15625 C 147.902344 262.863281 146.535156 264.230469 144.828125 264.230469 " fill-opacity="1" fill-rule="nonzero"/><g clip-path="url(#id3)"><path fill="#ffffff" d="M 286.386719 110.550781 C 285.953125 110.550781 285.496094 110.457031 285.089844 110.265625 L 205.078125 73.382812 C 203.539062 72.683594 202.863281 70.835938 203.585938 69.300781 C 204.308594 67.761719 206.132812 67.089844 207.671875 67.8125 L 286.386719 104.09375 L 365.101562 67.8125 C 366.640625 67.089844 368.492188 67.761719 369.1875 69.300781 C 369.910156 70.835938 369.238281 72.683594 367.699219 73.382812 L 287.683594 110.265625 C 287.277344 110.457031 286.820312 110.550781 286.386719 110.550781 " fill-opacity="1" fill-rule="nonzero"/></g><g clip-path="url(#id4)"><path fill="#ffffff" d="M 209.453125 154.6875 L 286.386719 190.152344 L 363.324219 154.6875 L 363.324219 72.566406 L 286.386719 37.097656 L 209.453125 72.566406 Z M 286.386719 196.613281 C 285.953125 196.613281 285.496094 196.515625 285.089844 196.324219 L 205.078125 159.441406 C 203.996094 158.9375 203.296875 157.855469 203.296875 156.65625 L 203.296875 70.597656 C 203.296875 69.394531 203.996094 68.316406 205.078125 67.8125 L 285.089844 30.929688 C 285.929688 30.542969 286.84375 30.542969 287.683594 30.929688 L 367.699219 67.8125 C 368.78125 68.316406 369.476562 69.394531 369.476562 70.597656 L 369.476562 156.65625 C 369.476562 157.855469 368.78125 158.9375 367.699219 159.441406 L 287.683594 196.324219 C 287.277344 196.515625 286.820312 196.613281 286.386719 196.613281 " fill-opacity="1" fill-rule="nonzero"/></g><path fill="#ffffff" d="M 286.386719 196.613281 C 284.679688 196.613281 283.308594 195.242188 283.308594 193.539062 L 283.308594 107.480469 C 283.308594 105.773438 284.679688 104.40625 286.386719 104.40625 C 288.09375 104.40625 289.464844 105.773438 289.464844 107.480469 L 289.464844 193.539062 C 289.464844 195.242188 288.09375 196.613281 286.386719 196.613281 " fill-opacity="1" fill-rule="nonzero"/><path fill="#ffffff" d="M 243.304688 116.699219 C 241.597656 116.699219 240.226562 115.332031 240.226562 113.625 L 240.226562 89.039062 C 240.226562 87.835938 240.921875 86.757812 242.003906 86.253906 L 322.019531 49.371094 C 323.554688 48.648438 325.382812 49.320312 326.105469 50.859375 C 326.828125 52.394531 326.152344 54.242188 324.613281 54.941406 L 246.378906 91.007812 L 246.378906 113.625 C 246.378906 115.332031 245.011719 116.699219 243.304688 116.699219 " fill-opacity="1" fill-rule="nonzero"/><path fill="#ffffff" d="M 89.433594 110.550781 C 89 110.550781 88.542969 110.457031 88.132812 110.265625 L 8.121094 73.382812 C 6.582031 72.683594 5.910156 70.835938 6.632812 69.300781 C 7.328125 67.761719 9.179688 67.089844 10.71875 67.8125 L 89.433594 104.09375 L 168.148438 67.8125 C 169.710938 67.089844 171.539062 67.761719 172.234375 69.300781 C 172.957031 70.835938 172.28125 72.683594 170.742188 73.382812 L 90.730469 110.265625 C 90.324219 110.457031 89.867188 110.550781 89.433594 110.550781 " fill-opacity="1" fill-rule="nonzero"/><g clip-path="url(#id5)"><path fill="#ffffff" d="M 12.496094 154.6875 L 89.433594 190.152344 L 166.367188 154.6875 L 166.367188 72.566406 L 89.433594 37.097656 L 12.496094 72.566406 Z M 89.433594 196.613281 C 89 196.613281 88.542969 196.515625 88.132812 196.324219 L 8.121094 159.441406 C 7.039062 158.9375 6.34375 157.855469 6.34375 156.65625 L 6.34375 70.597656 C 6.34375 69.394531 7.039062 68.316406 8.121094 67.8125 L 88.132812 30.929688 C 88.953125 30.542969 89.914062 30.542969 90.730469 30.929688 L 170.742188 67.8125 C 171.824219 68.316406 172.523438 69.394531 172.523438 70.597656 L 172.523438 156.65625 C 172.523438 157.855469 171.824219 158.9375 170.742188 159.441406 L 90.730469 196.324219 C 90.324219 196.515625 89.867188 196.613281 89.433594 196.613281 " fill-opacity="1" fill-rule="nonzero"/></g><path fill="#ffffff" d="M 89.433594 196.613281 C 87.726562 196.613281 86.355469 195.242188 86.355469 193.539062 L 86.355469 107.480469 C 86.355469 105.773438 87.726562 104.40625 89.433594 104.40625 C 91.140625 104.40625 92.511719 105.773438 92.511719 107.480469 L 92.511719 193.539062 C 92.511719 195.242188 91.140625 196.613281 89.433594 196.613281 " fill-opacity="1" fill-rule="nonzero"/><path fill="#ffffff" d="M 46.347656 116.699219 C 44.640625 116.699219 43.273438 115.332031 43.273438 113.625 L 43.273438 89.039062 C 43.273438 87.835938 43.96875 86.757812 45.050781 86.253906 L 125.0625 49.371094 C 126.625 48.648438 128.453125 49.320312 129.152344 50.859375 C 129.871094 52.394531 129.199219 54.242188 127.660156 54.941406 L 49.425781 91.007812 L 49.425781 113.625 C 49.425781 115.332031 48.054688 116.699219 46.347656 116.699219 " fill-opacity="1" fill-rule="nonzero"/><path fill="#ffffff" d="M 130.496094 106.398438 C 127.5625 106.398438 124.535156 107.023438 121.457031 108.296875 C 116.3125 110.410156 112.058594 115.355469 108.449219 123.398438 C 107.078125 126.402344 108.355469 129.953125 111.289062 131.417969 L 117.707031 134.613281 C 118.570312 135.046875 119.507812 135.261719 120.449219 135.261719 C 120.519531 135.261719 120.589844 135.261719 120.664062 135.261719 C 119.246094 137.710938 117.394531 140.734375 115.039062 144.3125 C 114.363281 145.371094 114.003906 146.644531 114.050781 147.914062 L 114.4375 158.046875 C 114.507812 160.089844 115.613281 161.988281 117.394531 163.042969 C 118.378906 163.644531 119.484375 163.957031 120.589844 163.957031 C 121.480469 163.957031 122.371094 163.761719 123.1875 163.378906 L 147.421875 152.070312 C 149.609375 151.039062 150.980469 148.875 150.980469 146.5 L 150.980469 138.453125 C 150.980469 136.4375 149.996094 134.539062 148.3125 133.386719 C 147.421875 132.789062 146.414062 132.425781 145.378906 132.332031 C 145.621094 131.753906 145.835938 131.203125 146.027344 130.652344 C 147.832031 125.609375 147.832031 120.78125 146.003906 116.363281 C 143.984375 111.441406 140.257812 108.199219 135.257812 106.976562 C 133.71875 106.589844 132.109375 106.398438 130.496094 106.398438 Z M 130.496094 112.546875 C 131.601562 112.546875 132.707031 112.664062 133.765625 112.929688 C 136.867188 113.699219 139.03125 115.617188 140.304688 118.691406 C 141.53125 121.695312 141.507812 124.984375 140.234375 128.585938 C 138.9375 132.210938 136.316406 137.085938 132.347656 143.234375 L 144.828125 138.453125 L 144.828125 146.5 L 120.589844 157.808594 L 120.207031 147.675781 C 125.882812 138.984375 128.742188 133.484375 129.96875 131.203125 C 131.890625 127.503906 132.46875 124.816406 131.769531 123.109375 C 131.386719 122.125 130.664062 121.527344 129.609375 121.285156 C 129.296875 121.191406 128.957031 121.164062 128.597656 121.164062 C 127.828125 121.164062 126.988281 121.359375 126.074219 121.71875 C 123.355469 122.847656 121.722656 126.234375 120.449219 129.113281 L 114.050781 125.921875 C 116.046875 121.503906 119.195312 115.882812 123.789062 113.984375 C 126.121094 113.027344 128.355469 112.546875 130.496094 112.546875 " fill-opacity="1" fill-rule="nonzero"/><path fill="#ffffff" d="M 331.898438 106.375 C 329.445312 106.375 326.800781 106.78125 324.011719 107.597656 C 317.929688 109.351562 313.21875 113.074219 310.042969 118.621094 C 308.578125 121.191406 309.15625 124.457031 311.414062 126.351562 L 316.730469 130.890625 C 317.402344 131.441406 318.171875 131.875 319.011719 132.117188 L 319.011719 136.222656 C 317.953125 136.652344 317.042969 137.398438 316.367188 138.335938 L 311.558594 145.082031 C 309.902344 147.386719 310.042969 150.53125 311.921875 152.671875 C 314.636719 155.816406 318.292969 157.785156 322.8125 158.554688 C 324.277344 158.792969 325.746094 158.914062 327.210938 158.914062 C 329.757812 158.914062 332.355469 158.554688 334.90625 157.808594 C 340 156.34375 344.015625 153.460938 346.804688 149.285156 C 349.785156 144.867188 350.578125 139.871094 349.160156 134.851562 C 348.464844 132.5 347.335938 130.484375 345.796875 128.875 C 345.820312 128.824219 345.84375 128.777344 345.867188 128.730469 C 348.007812 125.007812 348.511719 120.949219 347.382812 116.988281 C 345.988281 112.257812 342.621094 108.800781 337.863281 107.261719 C 336.011719 106.664062 333.992188 106.375 331.898438 106.375 Z M 331.898438 112.523438 C 333.367188 112.523438 334.734375 112.714844 335.988281 113.121094 C 338.824219 114.035156 340.652344 115.882812 341.46875 118.714844 C 342.140625 121.070312 341.828125 123.398438 340.507812 125.703125 C 339.207031 128.007812 337.429688 129.667969 335.167969 130.722656 C 335.242188 130.722656 335.3125 130.722656 335.386719 130.722656 C 337.332031 130.722656 338.96875 131.203125 340.3125 132.210938 C 341.707031 133.242188 342.695312 134.683594 343.222656 136.558594 C 344.183594 139.824219 343.65625 142.945312 341.683594 145.875 C 339.714844 148.828125 336.898438 150.820312 333.171875 151.902344 C 331.179688 152.476562 329.183594 152.765625 327.210938 152.765625 C 326.082031 152.765625 324.949219 152.671875 323.84375 152.5 C 320.769531 151.972656 318.339844 150.699219 316.558594 148.660156 L 321.367188 141.886719 C 322.644531 143.136719 324.15625 143.953125 325.886719 144.289062 C 326.632812 144.457031 327.402344 144.53125 328.125 144.53125 C 329.0625 144.53125 330 144.410156 330.867188 144.144531 C 332.429688 143.714844 333.511719 142.921875 334.085938 141.792969 C 334.664062 140.664062 334.761719 139.488281 334.421875 138.3125 C 334.039062 136.988281 333.078125 136.367188 331.492188 136.367188 C 330.746094 136.367188 329.832031 136.507812 328.796875 136.796875 C 326.851562 137.375 325.503906 137.734375 325.167969 137.878906 L 325.167969 129.546875 C 325.503906 129.5 326.488281 129.113281 328.847656 128.441406 C 330.480469 127.960938 331.660156 127.242188 332.378906 126.257812 C 333.101562 125.296875 333.292969 124.214844 332.957031 123.0625 C 332.574219 121.742188 331.539062 121.09375 329.878906 121.09375 C 329.039062 121.09375 328.027344 121.261719 326.875 121.597656 C 324.230469 122.367188 322.160156 123.878906 320.71875 126.183594 L 315.382812 121.671875 C 317.761719 117.539062 321.222656 114.800781 325.746094 113.480469 C 327.980469 112.832031 330.023438 112.523438 331.898438 112.523438 " fill-opacity="1" fill-rule="nonzero"/><path fill="#ffffff" d="M 237.148438 251.550781 C 236.355469 251.550781 235.585938 251.695312 234.839844 252.007812 L 227.171875 255.105469 C 226.160156 255.515625 225.273438 256.1875 224.621094 257.050781 L 212.914062 272.082031 C 210.894531 274.675781 211.277344 278.398438 213.78125 280.535156 L 218.925781 284.929688 C 219.789062 285.648438 220.847656 286.128906 221.953125 286.320312 L 222.144531 300.632812 C 222.171875 302.578125 223.132812 304.402344 224.71875 305.53125 C 225.777344 306.300781 227.027344 306.683594 228.300781 306.683594 C 228.949219 306.683594 229.597656 306.589844 230.222656 306.371094 L 239.070312 303.492188 C 241.597656 302.648438 243.304688 300.296875 243.304688 297.632812 L 243.304688 257.699219 C 243.304688 255.660156 242.292969 253.738281 240.585938 252.609375 C 239.554688 251.914062 238.351562 251.550781 237.148438 251.550781 Z M 237.148438 257.699219 L 237.148438 297.632812 L 228.300781 300.539062 L 227.917969 273.089844 L 222.914062 280.246094 L 217.769531 275.851562 L 229.480469 260.820312 L 237.148438 257.699219 " fill-opacity="1" fill-rule="nonzero"/></svg>