<svg xmlns="http://www.w3.org/2000/svg" xmlns:xlink="http://www.w3.org/1999/xlink" width="500" zoomAndPan="magnify" viewBox="0 0 375 374.999991" height="500" preserveAspectRatio="xMidYMid meet" version="1.0"><defs><clipPath id="id1"><path d="M 18.75 29.183594 L 356.25 29.183594 L 356.25 345.683594 L 18.75 345.683594 Z M 18.75 29.183594 " clip-rule="nonzero"/></clipPath></defs><path fill="#ffffff" d="M 176.933594 105.648438 L 144.203125 105.648438 C 141.191406 105.648438 138.75 108.089844 138.75 111.097656 L 138.75 143.8125 C 138.75 146.824219 141.191406 149.265625 144.203125 149.265625 L 176.933594 149.265625 C 179.945312 149.265625 182.386719 146.824219 182.386719 143.8125 L 182.386719 111.097656 C 182.386719 108.089844 179.945312 105.648438 176.933594 105.648438 Z M 171.476562 138.359375 L 149.660156 138.359375 L 149.660156 116.550781 L 171.476562 116.550781 Z M 171.476562 138.359375 " fill-opacity="1" fill-rule="nonzero"/><path fill="#ffffff" d="M 127.839844 105.648438 L 95.113281 105.648438 C 92.101562 105.648438 89.660156 108.089844 89.660156 111.097656 L 89.660156 143.8125 C 89.660156 146.824219 92.101562 149.265625 95.113281 149.265625 L 127.839844 149.265625 C 130.851562 149.265625 133.296875 146.824219 133.296875 143.8125 L 133.296875 111.097656 C 133.296875 108.089844 130.851562 105.648438 127.839844 105.648438 Z M 122.386719 138.359375 L 100.566406 138.359375 L 100.566406 116.550781 L 122.386719 116.550781 Z M 122.386719 138.359375 " fill-opacity="1" fill-rule="nonzero"/><path fill="#ffffff" d="M 78.75 105.648438 L 46.023438 105.648438 C 43.011719 105.648438 40.566406 108.089844 40.566406 111.097656 L 40.566406 143.8125 C 40.566406 146.824219 43.011719 149.265625 46.023438 149.265625 L 78.75 149.265625 C 81.761719 149.265625 84.203125 146.824219 84.203125 143.8125 L 84.203125 111.097656 C 84.203125 108.089844 81.761719 105.648438 78.75 105.648438 Z M 73.296875 138.359375 L 51.476562 138.359375 L 51.476562 116.550781 L 73.296875 116.550781 Z M 73.296875 138.359375 " fill-opacity="1" fill-rule="nonzero"/><path fill="#ffffff" d="M 242.386719 149.265625 L 275.113281 149.265625 C 278.125 149.265625 280.566406 146.824219 280.566406 143.8125 L 280.566406 111.097656 C 280.566406 108.089844 278.125 105.648438 275.113281 105.648438 L 242.386719 105.648438 C 239.375 105.648438 236.933594 108.089844 236.933594 111.097656 L 236.933594 143.8125 C 236.933594 146.824219 239.375 149.265625 242.386719 149.265625 Z M 247.839844 116.550781 L 269.660156 116.550781 L 269.660156 138.359375 L 247.839844 138.359375 Z M 247.839844 116.550781 " fill-opacity="1" fill-rule="nonzero"/><path fill="#ffffff" d="M 226.023438 105.648438 L 193.296875 105.648438 C 190.28125 105.648438 187.839844 108.089844 187.839844 111.097656 L 187.839844 143.8125 C 187.839844 146.824219 190.28125 149.265625 193.296875 149.265625 L 226.023438 149.265625 C 229.035156 149.265625 231.476562 146.824219 231.476562 143.8125 L 231.476562 111.097656 C 231.476562 108.089844 229.035156 105.648438 226.023438 105.648438 Z M 220.566406 138.359375 L 198.75 138.359375 L 198.75 116.550781 L 220.566406 116.550781 Z M 220.566406 138.359375 " fill-opacity="1" fill-rule="nonzero"/><path fill="#ffffff" d="M 176.933594 154.71875 L 144.203125 154.71875 C 141.191406 154.71875 138.75 157.160156 138.75 160.171875 L 138.75 192.882812 C 138.75 195.894531 141.191406 198.335938 144.203125 198.335938 L 176.933594 198.335938 C 179.945312 198.335938 182.386719 195.894531 182.386719 192.882812 L 182.386719 160.171875 C 182.386719 157.160156 179.945312 154.71875 176.933594 154.71875 Z M 171.476562 187.433594 L 149.660156 187.433594 L 149.660156 165.621094 L 171.476562 165.621094 Z M 171.476562 187.433594 " fill-opacity="1" fill-rule="nonzero"/><path fill="#ffffff" d="M 127.839844 154.71875 L 95.113281 154.71875 C 92.101562 154.71875 89.660156 157.160156 89.660156 160.171875 L 89.660156 192.882812 C 89.660156 195.894531 92.101562 198.335938 95.113281 198.335938 L 127.839844 198.335938 C 130.851562 198.335938 133.296875 195.894531 133.296875 192.882812 L 133.296875 160.171875 C 133.296875 157.160156 130.851562 154.71875 127.839844 154.71875 Z M 122.386719 187.433594 L 100.566406 187.433594 L 100.566406 165.621094 L 122.386719 165.621094 Z M 122.386719 187.433594 " fill-opacity="1" fill-rule="nonzero"/><path fill="#ffffff" d="M 78.75 154.71875 L 46.023438 154.71875 C 43.011719 154.71875 40.566406 157.160156 40.566406 160.171875 L 40.566406 192.882812 C 40.566406 195.894531 43.011719 198.335938 46.023438 198.335938 L 78.75 198.335938 C 81.761719 198.335938 84.203125 195.894531 84.203125 192.882812 L 84.203125 160.171875 C 84.203125 157.160156 81.761719 154.71875 78.75 154.71875 Z M 73.296875 187.433594 L 51.476562 187.433594 L 51.476562 165.621094 L 73.296875 165.621094 Z M 73.296875 187.433594 " fill-opacity="1" fill-rule="nonzero"/><path fill="#ffffff" d="M 242.386719 198.335938 L 275.113281 198.335938 C 278.125 198.335938 280.566406 195.894531 280.566406 192.882812 L 280.566406 160.171875 C 280.566406 157.160156 278.125 154.71875 275.113281 154.71875 L 242.386719 154.71875 C 239.375 154.71875 236.933594 157.160156 236.933594 160.171875 L 236.933594 192.882812 C 236.933594 195.894531 239.375 198.335938 242.386719 198.335938 Z M 247.839844 165.621094 L 269.660156 165.621094 L 269.660156 187.433594 L 247.839844 187.433594 Z M 247.839844 165.621094 " fill-opacity="1" fill-rule="nonzero"/><path fill="#ffffff" d="M 226.023438 154.71875 L 193.296875 154.71875 C 190.28125 154.71875 187.839844 157.160156 187.839844 160.171875 L 187.839844 192.882812 C 187.839844 195.894531 190.28125 198.335938 193.296875 198.335938 L 226.023438 198.335938 C 229.035156 198.335938 231.476562 195.894531 231.476562 192.882812 L 231.476562 160.171875 C 231.476562 157.160156 229.035156 154.71875 226.023438 154.71875 Z M 220.566406 187.433594 L 198.75 187.433594 L 198.75 165.621094 L 220.566406 165.621094 Z M 220.566406 187.433594 " fill-opacity="1" fill-rule="nonzero"/><path fill="#ffffff" d="M 176.933594 203.789062 L 144.203125 203.789062 C 141.191406 203.789062 138.75 206.230469 138.75 209.242188 L 138.75 241.953125 C 138.75 244.964844 141.191406 247.40625 144.203125 247.40625 L 176.933594 247.40625 C 179.945312 247.40625 182.386719 244.964844 182.386719 241.953125 L 182.386719 209.242188 C 182.386719 206.230469 179.945312 203.789062 176.933594 203.789062 Z M 171.476562 236.503906 L 149.660156 236.503906 L 149.660156 214.695312 L 171.476562 214.695312 Z M 171.476562 236.503906 " fill-opacity="1" fill-rule="nonzero"/><path fill="#ffffff" d="M 127.839844 203.789062 L 95.113281 203.789062 C 92.101562 203.789062 89.660156 206.230469 89.660156 209.242188 L 89.660156 241.953125 C 89.660156 244.964844 92.101562 247.40625 95.113281 247.40625 L 127.839844 247.40625 C 130.851562 247.40625 133.296875 244.964844 133.296875 241.953125 L 133.296875 209.242188 C 133.296875 206.230469 130.851562 203.789062 127.839844 203.789062 Z M 122.386719 236.503906 L 100.566406 236.503906 L 100.566406 214.695312 L 122.386719 214.695312 Z M 122.386719 236.503906 " fill-opacity="1" fill-rule="nonzero"/><path fill="#ffffff" d="M 78.75 203.789062 L 46.023438 203.789062 C 43.011719 203.789062 40.566406 206.230469 40.566406 209.242188 L 40.566406 241.953125 C 40.566406 244.964844 43.011719 247.40625 46.023438 247.40625 L 78.75 247.40625 C 81.761719 247.40625 84.203125 244.964844 84.203125 241.953125 L 84.203125 209.242188 C 84.203125 206.230469 81.761719 203.789062 78.75 203.789062 Z M 73.296875 236.503906 L 51.476562 236.503906 L 51.476562 214.695312 L 73.296875 214.695312 Z M 73.296875 236.503906 " fill-opacity="1" fill-rule="nonzero"/><g clip-path="url(#id1)"><path fill="#ffffff" d="M 302.386719 205.859375 L 302.386719 64.753906 C 302.386719 54.230469 293.824219 45.671875 283.296875 45.671875 L 253.296875 45.671875 L 253.296875 34.765625 C 253.296875 31.753906 250.855469 29.3125 247.839844 29.3125 L 226.023438 29.3125 C 223.007812 29.3125 220.566406 31.753906 220.566406 34.765625 L 220.566406 45.671875 L 176.933594 45.671875 L 176.933594 34.765625 C 176.933594 31.753906 174.492188 29.3125 171.476562 29.3125 L 149.660156 29.3125 C 146.644531 29.3125 144.203125 31.753906 144.203125 34.765625 L 144.203125 45.671875 L 100.566406 45.671875 L 100.566406 34.765625 C 100.566406 31.753906 98.128906 29.3125 95.113281 29.3125 L 73.296875 29.3125 C 70.28125 29.3125 67.839844 31.753906 67.839844 34.765625 L 67.839844 45.671875 L 37.839844 45.671875 C 27.3125 45.671875 18.75 54.230469 18.75 64.753906 L 18.75 255.585938 C 18.75 266.109375 27.3125 274.667969 37.839844 274.667969 L 214.433594 274.667969 C 214.433594 313.753906 246.238281 345.550781 285.339844 345.550781 C 324.441406 345.550781 356.25 313.753906 356.25 274.667969 C 356.25 241.457031 333.28125 213.515625 302.386719 205.859375 Z M 231.476562 40.21875 L 242.386719 40.21875 L 242.386719 62.027344 L 231.476562 62.027344 Z M 155.113281 40.21875 L 166.023438 40.21875 L 166.023438 62.027344 L 155.113281 62.027344 Z M 78.75 40.21875 L 89.660156 40.21875 L 89.660156 62.027344 L 78.75 62.027344 Z M 29.660156 64.753906 C 29.660156 60.242188 33.328125 56.574219 37.839844 56.574219 L 67.839844 56.574219 L 67.839844 67.480469 C 67.839844 70.492188 70.28125 72.933594 73.296875 72.933594 L 95.113281 72.933594 C 98.128906 72.933594 100.566406 70.492188 100.566406 67.480469 L 100.566406 56.574219 L 144.203125 56.574219 L 144.203125 67.480469 C 144.203125 70.492188 146.644531 72.933594 149.660156 72.933594 L 171.476562 72.933594 C 174.492188 72.933594 176.933594 70.492188 176.933594 67.480469 L 176.933594 56.574219 L 220.566406 56.574219 L 220.566406 67.480469 C 220.566406 70.492188 223.007812 72.933594 226.023438 72.933594 L 247.839844 72.933594 C 250.855469 72.933594 253.296875 70.492188 253.296875 67.480469 L 253.296875 56.574219 L 283.296875 56.574219 C 287.808594 56.574219 291.476562 60.242188 291.476562 64.753906 L 291.476562 83.835938 L 29.660156 83.835938 Z M 37.839844 263.765625 C 33.328125 263.765625 29.660156 260.097656 29.660156 255.585938 L 29.660156 94.742188 L 291.476562 94.742188 L 291.476562 204.054688 C 289.453125 203.882812 287.40625 203.789062 285.339844 203.789062 C 249.949219 203.789062 220.535156 229.835938 215.269531 263.765625 Z M 285.339844 334.644531 C 252.257812 334.644531 225.339844 307.738281 225.339844 274.667969 C 225.339844 273.035156 225.410156 271.417969 225.539062 269.816406 C 225.546875 269.78125 225.546875 269.742188 225.546875 269.707031 C 228.082031 238.949219 253.929688 214.695312 285.339844 214.695312 C 318.421875 214.695312 345.339844 241.601562 345.339844 274.667969 C 345.339844 307.738281 318.421875 334.644531 285.339844 334.644531 Z M 285.339844 334.644531 " fill-opacity="1" fill-rule="nonzero"/></g><path fill="#ffffff" d="M 302.386719 269.214844 L 291.476562 269.214844 L 291.476562 236.503906 C 291.476562 233.492188 289.035156 231.050781 286.023438 231.050781 C 283.011719 231.050781 280.566406 233.492188 280.566406 236.503906 L 280.566406 274.667969 C 280.566406 277.679688 283.011719 280.121094 286.023438 280.121094 L 302.386719 280.121094 C 305.398438 280.121094 307.839844 277.679688 307.839844 274.667969 C 307.839844 271.65625 305.398438 269.214844 302.386719 269.214844 Z M 302.386719 269.214844 " fill-opacity="1" fill-rule="nonzero"/></svg>