<svg xmlns="http://www.w3.org/2000/svg" xmlns:xlink="http://www.w3.org/1999/xlink" width="500" zoomAndPan="magnify" viewBox="0 0 375 374.999991" height="500" preserveAspectRatio="xMidYMid meet" version="1.0"><defs><clipPath id="id1"><path d="M 19.457031 19.457031 L 355.457031 19.457031 L 355.457031 355.457031 L 19.457031 355.457031 Z M 19.457031 19.457031 " clip-rule="nonzero"/></clipPath></defs><g clip-path="url(#id1)"><path fill="#69d957" d="M 287.507812 124.390625 L 282.933594 128.964844 L 246.003906 92.035156 L 250.578125 87.464844 C 255.167969 82.875 262.605469 82.875 267.191406 87.464844 L 287.507812 107.777344 C 292.09375 112.363281 292.09375 119.804688 287.507812 124.390625 Z M 146.484375 265.417969 L 109.550781 228.488281 L 242.269531 95.769531 L 279.199219 132.699219 Z M 85.265625 289.707031 L 104.421875 233.621094 L 141.351562 270.550781 Z M 187.484375 19.46875 C 94.691406 19.46875 19.46875 94.691406 19.46875 187.484375 C 19.46875 280.277344 94.691406 355.5 187.484375 355.5 C 280.277344 355.5 355.5 280.277344 355.5 187.484375 C 355.5 94.691406 280.277344 19.46875 187.484375 19.46875 " fill-opacity="1" fill-rule="nonzero"/></g></svg>