<svg xmlns="http://www.w3.org/2000/svg" xmlns:xlink="http://www.w3.org/1999/xlink" width="500" zoomAndPan="magnify" viewBox="0 0 375 374.999991" height="500" preserveAspectRatio="xMidYMid meet" version="1.0"><defs><clipPath id="id1"><path d="M 12.417969 12.417969 L 362.667969 12.417969 L 362.667969 362.667969 L 12.417969 362.667969 Z M 12.417969 12.417969 " clip-rule="nonzero"/></clipPath></defs><path fill="#69d957" d="M 187.542969 149.015625 L 226.066406 205.046875 L 149.015625 205.046875 Z M 187.542969 85.957031 L 82.472656 240.058594 L 292.609375 240.058594 L 187.542969 85.957031 " fill-opacity="1" fill-rule="nonzero"/><g clip-path="url(#id1)"><path fill="#69d957" d="M 187.542969 327.652344 C 110.488281 327.652344 47.429688 264.59375 47.429688 187.542969 C 47.429688 110.488281 110.488281 47.429688 187.542969 47.429688 C 264.59375 47.429688 327.621094 110.488281 327.621094 187.542969 C 327.621094 264.59375 264.59375 327.652344 187.542969 327.652344 Z M 187.542969 12.417969 C 91.210938 12.417969 12.417969 91.210938 12.417969 187.542969 C 12.417969 283.871094 91.210938 362.667969 187.542969 362.667969 C 283.839844 362.667969 362.667969 283.871094 362.667969 187.542969 C 362.667969 91.210938 283.839844 12.417969 187.542969 12.417969 " fill-opacity="1" fill-rule="nonzero"/></g></svg>