<svg xmlns="http://www.w3.org/2000/svg" xmlns:xlink="http://www.w3.org/1999/xlink" width="500" zoomAndPan="magnify" viewBox="0 0 375 374.999991" height="500" preserveAspectRatio="xMidYMid meet" version="1.0"><defs><clipPath id="id1"><path d="M 28.105469 28.105469 L 346.855469 28.105469 L 346.855469 346.855469 L 28.105469 346.855469 Z M 28.105469 28.105469 " clip-rule="nonzero"/></clipPath></defs><g clip-path="url(#id1)"><path fill="#69d957" d="M 346.910156 187.507812 C 346.910156 275.542969 275.542969 346.910156 187.511719 346.910156 C 99.472656 346.910156 28.105469 275.542969 28.105469 187.507812 C 28.105469 99.46875 99.472656 28.101562 187.511719 28.101562 C 275.542969 28.101562 346.910156 99.46875 346.910156 187.507812 " fill-opacity="1" fill-rule="nonzero"/></g><path fill="#ffffff" d="M 196.699219 196.699219 L 196.699219 256.476562 L 178.320312 256.476562 L 178.320312 196.699219 L 118.535156 196.699219 L 118.535156 178.3125 L 178.320312 178.3125 L 178.320312 118.535156 L 196.699219 118.535156 L 196.699219 178.3125 L 256.484375 178.3125 L 256.484375 196.699219 L 196.699219 196.699219 " fill-opacity="1" fill-rule="nonzero"/></svg>