<svg xmlns="http://www.w3.org/2000/svg" xmlns:xlink="http://www.w3.org/1999/xlink" width="500" zoomAndPan="magnify" viewBox="0 0 375 374.999991" height="500" preserveAspectRatio="xMidYMid meet" version="1.0"><defs><clipPath id="id1"><path d="M 15.949219 168 L 204 168 L 204 357.257812 L 15.949219 357.257812 Z M 15.949219 168 " clip-rule="nonzero"/></clipPath><clipPath id="id2"><path d="M 158 17.507812 L 358.699219 17.507812 L 358.699219 219 L 158 219 Z M 158 17.507812 " clip-rule="nonzero"/></clipPath><clipPath id="id3"><path d="M 148 216 L 289 216 L 289 357.257812 L 148 357.257812 Z M 148 216 " clip-rule="nonzero"/></clipPath></defs><path fill="#313659" d="M 183.628906 267.859375 C 181.175781 267.859375 178.871094 268.449219 176.773438 269.515625 L 176.773438 269.5 L 176.726562 269.546875 C 175.21875 270.300781 173.84375 271.304688 172.632812 272.503906 C 160.75 279.851562 154.898438 271.644531 153.316406 268.761719 L 153.316406 219.644531 L 105.117188 219.644531 C 105.117188 219.644531 91.699219 214.058594 100.476562 199.863281 C 101.675781 198.636719 102.664062 197.261719 103.433594 195.769531 L 103.460938 195.722656 C 104.511719 193.625 105.117188 191.300781 105.117188 188.863281 C 105.117188 179.652344 96.78125 172.183594 86.496094 172.183594 C 76.195312 172.183594 67.859375 179.652344 67.859375 188.863281 C 67.859375 191.300781 68.464844 193.625 69.527344 195.722656 L 69.511719 195.722656 L 69.542969 195.769531 C 70.3125 197.261719 71.316406 198.636719 72.511719 199.863281 C 81.277344 214.058594 67.859375 219.644531 67.859375 219.644531 L 19.667969 219.644531 L 19.667969 353.332031 L 153.316406 353.332031 L 153.316406 304.214844 C 154.898438 301.347656 160.75 293.128906 172.632812 300.476562 C 173.84375 301.671875 175.21875 302.679688 176.726562 303.433594 L 176.773438 303.476562 L 176.773438 303.460938 C 178.871094 304.527344 181.175781 305.132812 183.628906 305.132812 C 192.839844 305.132812 200.300781 296.777344 200.300781 286.488281 C 200.300781 276.199219 192.839844 267.859375 183.628906 267.859375 " fill-opacity="1" fill-rule="nonzero"/><g clip-path="url(#id1)"><path fill="#ffffff" d="M 183.628906 267.859375 L 183.628906 264.164062 C 180.570312 264.148438 177.671875 264.917969 175.101562 266.21875 L 176.773438 269.515625 L 179.980469 267.683594 L 179.980469 267.667969 C 179.433594 266.722656 178.5 266.070312 177.4375 265.863281 C 176.386719 265.671875 175.277344 265.953125 174.4375 266.632812 L 174.390625 266.675781 L 176.726562 269.546875 L 175.042969 266.246094 C 173.195312 267.195312 171.511719 268.421875 170.03125 269.871094 L 172.632812 272.503906 L 170.683594 269.367188 C 167.625 271.246094 165.347656 271.777344 163.660156 271.792969 C 162.65625 271.777344 161.816406 271.601562 161.0625 271.289062 C 159.9375 270.847656 158.976562 270.078125 158.207031 269.25 C 157.425781 268.421875 156.863281 267.535156 156.539062 266.972656 L 153.316406 268.761719 L 157.011719 268.761719 L 157.011719 219.644531 C 157.011719 218.667969 156.613281 217.722656 155.933594 217.027344 C 155.238281 216.347656 154.292969 215.949219 153.316406 215.949219 L 105.117188 215.949219 L 105.117188 219.644531 L 106.535156 216.230469 L 105.785156 218.046875 L 106.566406 216.246094 L 106.535156 216.230469 L 105.785156 218.046875 L 106.566406 216.246094 C 106.566406 216.246094 106.476562 216.199219 106.316406 216.113281 C 105.738281 215.832031 104.304688 214.988281 103.167969 213.746094 C 102.605469 213.125 102.117188 212.414062 101.761719 211.617188 C 101.410156 210.804688 101.203125 209.933594 101.203125 208.824219 C 101.203125 207.136719 101.71875 204.875 103.609375 201.800781 L 100.476562 199.863281 L 103.109375 202.449219 C 104.554688 200.972656 105.785156 199.300781 106.730469 197.453125 L 103.433594 195.769531 L 106.257812 198.148438 L 106.300781 198.105469 C 107.023438 197.230469 107.320312 196.078125 107.082031 194.96875 C 106.863281 193.859375 106.136719 192.929688 105.132812 192.410156 L 105.117188 192.410156 L 103.460938 195.722656 L 106.757812 197.394531 C 108.058594 194.820312 108.828125 191.921875 108.8125 188.863281 C 108.828125 183.113281 106.195312 177.9375 102.132812 174.316406 C 98.066406 170.675781 92.539062 168.488281 86.496094 168.488281 C 80.449219 168.488281 74.921875 170.675781 70.859375 174.316406 C 66.792969 177.9375 64.164062 183.113281 64.164062 188.863281 C 64.164062 191.921875 64.929688 194.820312 66.21875 197.378906 L 69.527344 195.722656 L 67.472656 192.648438 L 67.457031 192.648438 C 66.601562 193.226562 66.039062 194.113281 65.863281 195.132812 C 65.699219 196.136719 65.964844 197.171875 66.585938 197.984375 L 66.617188 198.03125 L 69.542969 195.769531 L 66.246094 197.453125 C 67.207031 199.300781 68.433594 200.972656 69.867188 202.449219 L 72.511719 199.863281 L 69.363281 201.800781 C 71.257812 204.875 71.789062 207.136719 71.789062 208.824219 C 71.789062 210.125 71.480469 211.128906 71.019531 212.03125 C 70.3125 213.390625 69.160156 214.5 68.125 215.238281 C 67.605469 215.59375 67.148438 215.875 66.824219 216.039062 C 66.675781 216.113281 66.542969 216.1875 66.484375 216.214844 L 66.410156 216.246094 L 67.355469 218.433594 L 66.4375 216.230469 L 66.410156 216.246094 L 67.355469 218.433594 L 66.4375 216.230469 L 67.859375 219.644531 L 67.859375 215.949219 L 19.667969 215.949219 C 18.691406 215.949219 17.746094 216.347656 17.050781 217.027344 C 16.363281 217.722656 15.972656 218.667969 15.972656 219.644531 L 15.972656 353.332031 C 15.972656 354.308594 16.363281 355.269531 17.050781 355.949219 C 17.746094 356.644531 18.691406 357.027344 19.667969 357.027344 L 153.316406 357.027344 C 154.292969 357.027344 155.238281 356.644531 155.933594 355.949219 C 156.613281 355.269531 157.011719 354.308594 157.011719 353.332031 L 157.011719 304.214844 L 153.316406 304.214844 L 156.539062 306.003906 C 156.964844 305.25 157.839844 303.933594 159.035156 302.929688 C 159.640625 302.425781 160.320312 302 161.0625 301.6875 C 161.816406 301.390625 162.65625 301.199219 163.660156 301.199219 C 165.347656 301.199219 167.625 301.730469 170.683594 303.625 L 172.632812 300.476562 L 170.03125 303.105469 C 171.511719 304.554688 173.195312 305.796875 175.042969 306.730469 L 176.726562 303.433594 L 174.289062 306.226562 L 174.332031 306.257812 C 175.175781 306.996094 176.285156 307.304688 177.378906 307.128906 C 178.472656 306.9375 179.417969 306.269531 179.980469 305.308594 L 179.980469 305.296875 L 176.773438 303.460938 L 175.101562 306.773438 C 177.660156 308.058594 180.570312 308.828125 183.628906 308.828125 C 189.378906 308.828125 194.550781 306.195312 198.171875 302.132812 C 201.808594 298.066406 203.996094 292.535156 203.996094 286.488281 C 203.996094 280.441406 201.808594 274.910156 198.171875 270.847656 C 194.550781 266.78125 189.363281 264.148438 183.628906 264.164062 L 183.628906 271.554688 C 187.089844 271.554688 190.25 273.09375 192.660156 275.769531 C 195.054688 278.445312 196.605469 282.230469 196.605469 286.488281 C 196.605469 290.730469 195.054688 294.53125 192.660156 297.207031 C 190.25 299.882812 187.089844 301.4375 183.628906 301.4375 C 181.796875 301.4375 180.054688 300.992188 178.441406 300.164062 C 176.683594 299.277344 174.539062 299.929688 173.566406 301.628906 L 173.566406 301.644531 L 176.773438 303.476562 L 179.195312 300.695312 L 179.152344 300.652344 C 178.914062 300.445312 178.679688 300.28125 178.398438 300.148438 C 177.246094 299.558594 176.179688 298.789062 175.21875 297.84375 C 175.027344 297.652344 174.804688 297.472656 174.570312 297.328125 C 170.636719 294.902344 166.988281 293.792969 163.660156 293.808594 C 161.679688 293.792969 159.863281 294.191406 158.296875 294.84375 C 155.933594 295.804688 154.128906 297.265625 152.8125 298.671875 C 151.484375 300.089844 150.609375 301.464844 150.078125 302.425781 C 149.785156 302.972656 149.621094 303.582031 149.621094 304.214844 L 149.621094 349.636719 L 23.355469 349.636719 L 23.355469 223.34375 L 67.859375 223.34375 C 68.34375 223.34375 68.816406 223.238281 69.277344 223.0625 C 69.511719 222.957031 71.757812 222.027344 74.167969 219.824219 C 75.367188 218.730469 76.609375 217.292969 77.566406 215.445312 C 78.527344 213.613281 79.179688 211.351562 79.179688 208.824219 C 79.179688 205.511719 78.085938 201.84375 75.648438 197.910156 C 75.515625 197.691406 75.335938 197.46875 75.144531 197.261719 C 74.199219 196.300781 73.429688 195.234375 72.839844 194.082031 C 72.734375 193.890625 72.601562 193.683594 72.46875 193.503906 L 72.425781 193.460938 L 69.511719 195.722656 L 71.550781 198.796875 L 71.566406 198.796875 C 73.132812 197.75 73.667969 195.722656 72.824219 194.050781 C 71.996094 192.425781 71.550781 190.695312 71.550781 188.863281 C 71.550781 185.386719 73.105469 182.238281 75.78125 179.816406 C 78.453125 177.417969 82.238281 175.882812 86.496094 175.882812 C 90.738281 175.882812 94.519531 177.417969 97.195312 179.816406 C 99.871094 182.238281 101.421875 185.386719 101.421875 188.863281 C 101.421875 190.695312 100.980469 192.425781 100.167969 194.050781 C 99.722656 194.925781 99.636719 195.945312 99.960938 196.875 C 100.253906 197.824219 100.921875 198.578125 101.808594 199.019531 L 101.820312 199.035156 L 103.460938 195.722656 L 100.640625 193.359375 L 100.609375 193.386719 C 100.433594 193.59375 100.269531 193.84375 100.136719 194.082031 C 99.5625 195.234375 98.777344 196.316406 97.847656 197.261719 C 97.652344 197.453125 97.476562 197.691406 97.328125 197.910156 C 94.890625 201.84375 93.796875 205.511719 93.796875 208.824219 C 93.796875 211.351562 94.445312 213.613281 95.40625 215.445312 C 96.855469 218.210938 98.910156 220.042969 100.566406 221.242188 C 102.222656 222.425781 103.523438 222.972656 103.699219 223.0625 C 104.15625 223.238281 104.628906 223.339844 105.117188 223.339844 L 149.621094 223.339844 L 149.621094 268.761719 C 149.621094 269.398438 149.785156 270.003906 150.078125 270.550781 C 150.789062 271.820312 152.105469 273.863281 154.292969 275.710938 C 155.386719 276.640625 156.714844 277.5 158.296875 278.148438 C 159.863281 278.785156 161.679688 279.183594 163.660156 279.183594 C 166.988281 279.183594 170.652344 278.074219 174.570312 275.652344 C 174.804688 275.503906 175.027344 275.324219 175.21875 275.132812 C 176.179688 274.1875 177.261719 273.417969 178.398438 272.828125 C 178.632812 272.710938 178.839844 272.574219 179.046875 272.414062 L 179.09375 272.367188 L 176.773438 269.5 L 173.566406 271.332031 L 173.566406 271.347656 C 174.539062 273.050781 176.683594 273.699219 178.441406 272.8125 C 180.054688 272 181.796875 271.554688 183.628906 271.554688 L 183.628906 267.859375 " fill-opacity="1" fill-rule="nonzero"/></g><path fill="#313659" d="M 191.359375 55.902344 L 203.953125 103.375 C 203.15625 106.554688 199.621094 116.003906 186.261719 111.953125 C 184.769531 111.109375 183.1875 110.488281 181.53125 110.132812 L 181.488281 110.117188 C 179.179688 109.628906 176.785156 109.644531 174.4375 110.28125 C 165.523438 112.644531 160.46875 122.625 163.101562 132.578125 C 165.746094 142.527344 175.101562 148.664062 184 146.3125 C 186.363281 145.675781 188.449219 144.507812 190.191406 142.941406 L 190.207031 142.941406 L 190.238281 142.894531 C 191.492188 141.773438 192.558594 140.457031 193.429688 138.992188 C 203.019531 128.835938 210.78125 135.265625 213.058594 137.632812 L 225.664062 185.121094 L 272.25 172.734375 C 272.25 172.734375 286.660156 174.683594 281.8125 190.667969 C 280.972656 192.144531 280.351562 193.742188 280.011719 195.382812 L 279.980469 195.425781 C 279.507812 197.734375 279.507812 200.113281 280.144531 202.496094 C 282.507812 211.394531 292.484375 216.464844 302.433594 213.820312 C 312.378906 211.171875 318.511719 201.816406 316.164062 192.929688 C 315.527344 190.546875 314.34375 188.480469 312.792969 186.71875 L 312.75 186.675781 C 311.625 185.433594 310.308594 184.355469 308.832031 183.480469 C 296.710938 172.023438 308.253906 163.167969 308.253906 163.167969 L 354.828125 150.792969 L 320.523438 21.585938 L 191.359375 55.902344 " fill-opacity="1" fill-rule="nonzero"/><g clip-path="url(#id2)"><path fill="#ffffff" d="M 191.359375 55.902344 L 187.78125 56.847656 L 200.390625 104.335938 L 203.953125 103.375 L 200.375 102.472656 C 200.140625 103.464844 199.472656 105.34375 198.246094 106.730469 C 197.640625 107.441406 196.917969 108.046875 196 108.492188 C 195.070312 108.933594 193.917969 109.246094 192.304688 109.246094 C 190.960938 109.246094 189.320312 109.023438 187.324219 108.417969 L 186.261719 111.953125 L 188.078125 108.742188 C 186.289062 107.722656 184.355469 106.953125 182.316406 106.523438 L 181.53125 110.132812 L 182.980469 106.730469 L 182.933594 106.703125 C 181.796875 106.230469 180.480469 106.347656 179.445312 107.027344 C 178.414062 107.707031 177.792969 108.875 177.792969 110.117188 L 181.488281 110.117188 L 182.242188 106.511719 C 180.941406 106.230469 179.609375 106.082031 178.25 106.082031 C 176.667969 106.082031 175.074219 106.289062 173.476562 106.703125 C 168.9375 107.914062 165.183594 110.738281 162.640625 114.390625 C 160.101562 118.058594 158.710938 122.550781 158.710938 127.269531 C 158.710938 129.324219 158.960938 131.421875 159.523438 133.523438 C 160.855469 138.519531 163.632812 142.75 167.253906 145.734375 C 170.875 148.722656 175.382812 150.511719 180.128906 150.511719 C 181.722656 150.511719 183.347656 150.304688 184.945312 149.875 C 187.902344 149.089844 190.503906 147.613281 192.660156 145.707031 L 190.191406 142.941406 L 187.578125 145.558594 L 187.589844 145.558594 C 188.34375 146.3125 189.394531 146.710938 190.457031 146.636719 C 191.539062 146.5625 192.511719 146.015625 193.164062 145.160156 L 193.191406 145.113281 L 190.238281 142.894531 L 192.703125 145.644531 C 194.257812 144.269531 195.558594 142.644531 196.605469 140.871094 L 193.429688 138.992188 L 196.121094 141.519531 C 197.847656 139.703125 199.386719 138.609375 200.699219 137.972656 C 202.015625 137.335938 203.09375 137.144531 204.085938 137.128906 C 205.488281 137.128906 206.761719 137.574219 207.871094 138.222656 C 208.992188 138.859375 209.894531 139.6875 210.398438 140.191406 L 213.058594 137.632812 L 209.480469 138.578125 L 222.101562 186.070312 C 222.621094 188.035156 224.644531 189.21875 226.609375 188.6875 L 273.199219 176.3125 L 272.25 172.734375 L 271.75 176.398438 C 272.015625 176.429688 274.171875 176.886719 275.917969 178.128906 C 276.789062 178.734375 277.558594 179.488281 278.132812 180.496094 C 278.695312 181.5 279.109375 182.742188 279.109375 184.621094 C 279.109375 185.9375 278.886719 187.589844 278.28125 189.601562 L 281.8125 190.667969 L 278.605469 188.832031 C 277.570312 190.636719 276.820312 192.574219 276.390625 194.601562 L 280.011719 195.382812 L 276.597656 193.933594 L 276.582031 193.992188 C 276.125 195.042969 276.199219 196.226562 276.746094 197.214844 C 277.292969 198.207031 278.253906 198.886719 279.375 199.078125 L 279.980469 195.425781 L 276.375 194.671875 C 276.09375 195.976562 275.945312 197.320312 275.945312 198.664062 C 275.945312 200.246094 276.152344 201.859375 276.566406 203.441406 C 277.777344 207.996094 280.601562 211.734375 284.253906 214.277344 C 287.917969 216.820312 292.410156 218.226562 297.125 218.226562 C 299.179688 218.226562 301.28125 217.960938 303.378906 217.398438 C 308.375 216.066406 312.601562 213.289062 315.585938 209.664062 C 318.570312 206.042969 320.359375 201.535156 320.359375 196.789062 C 320.359375 195.191406 320.152344 193.566406 319.726562 191.984375 C 318.941406 189.011719 317.464844 186.410156 315.558594 184.265625 L 312.792969 186.71875 L 315.410156 189.335938 L 315.410156 189.320312 C 316.148438 188.582031 316.53125 187.5625 316.488281 186.527344 C 316.429688 185.476562 315.941406 184.5 315.128906 183.851562 L 315.085938 183.804688 L 312.75 186.675781 L 315.496094 184.207031 C 314.109375 182.667969 312.496094 181.351562 310.722656 180.300781 L 308.832031 183.480469 L 311.375 180.804688 C 309.554688 179.074219 308.460938 177.539062 307.828125 176.222656 C 307.191406 174.90625 307 173.8125 306.984375 172.820312 C 306.984375 171.890625 307.191406 171.015625 307.5 170.203125 C 307.988281 168.992188 308.773438 167.882812 309.4375 167.144531 C 309.777344 166.773438 310.074219 166.476562 310.28125 166.300781 L 310.488281 166.109375 L 310.53125 166.078125 L 309.617188 164.941406 L 310.503906 166.109375 L 310.53125 166.078125 L 309.617188 164.941406 L 310.503906 166.109375 L 308.253906 163.167969 L 309.203125 166.746094 L 355.789062 154.371094 C 356.734375 154.117188 357.546875 153.480469 358.035156 152.640625 C 358.523438 151.796875 358.65625 150.792969 358.40625 149.84375 L 324.101562 20.632812 C 323.847656 19.691406 323.214844 18.871094 322.386719 18.378906 C 321.542969 17.894531 320.523438 17.753906 319.578125 18.003906 L 190.398438 52.324219 C 188.433594 52.855469 187.265625 54.882812 187.785156 56.847656 L 191.359375 55.902344 L 192.304688 59.480469 L 317.90625 26.09375 L 350.320312 148.175781 L 307.308594 159.601562 C 306.835938 159.722656 306.394531 159.929688 306.007812 160.238281 C 305.832031 160.386719 304.355469 161.511719 302.800781 163.609375 C 302.035156 164.660156 301.25 165.945312 300.628906 167.484375 C 300.023438 169.035156 299.59375 170.839844 299.59375 172.820312 C 299.59375 174.90625 300.082031 177.183594 301.175781 179.445312 C 302.269531 181.691406 303.941406 183.953125 306.289062 186.171875 C 306.496094 186.347656 306.71875 186.527344 306.953125 186.660156 C 308.121094 187.355469 309.140625 188.183594 310 189.144531 C 310.148438 189.304688 310.25 189.410156 310.414062 189.542969 L 310.457031 189.585938 L 312.792969 186.71875 L 310.175781 184.101562 C 308.789062 185.492188 308.730469 187.710938 310.027344 189.171875 C 311.242188 190.535156 312.113281 192.085938 312.585938 193.859375 C 312.835938 194.851562 312.96875 195.828125 312.96875 196.789062 C 312.96875 199.65625 311.890625 202.523438 309.882812 204.964844 C 307.886719 207.375 304.988281 209.324219 301.488281 210.257812 C 300.007812 210.640625 298.546875 210.832031 297.125 210.832031 C 293.859375 210.832031 290.828125 209.859375 288.480469 208.214844 C 286.128906 206.5625 284.445312 204.296875 283.707031 201.535156 C 283.453125 200.585938 283.335938 199.640625 283.335938 198.664062 C 283.335938 197.835938 283.425781 197.023438 283.601562 196.195312 C 283.808594 195.207031 283.617188 194.183594 283.039062 193.359375 C 282.464844 192.515625 281.59375 191.953125 280.585938 191.789062 L 279.980469 195.425781 L 283.378906 196.863281 L 283.410156 196.816406 C 283.484375 196.609375 283.574219 196.359375 283.617188 196.152344 C 283.882812 194.894531 284.355469 193.667969 285.019531 192.5 C 285.15625 192.261719 285.273438 191.984375 285.359375 191.730469 C 286.128906 189.144531 286.5 186.777344 286.5 184.621094 C 286.515625 181.382812 285.65625 178.585938 284.296875 176.398438 C 283.292969 174.773438 282.035156 173.5 280.765625 172.527344 C 278.859375 171.046875 276.921875 170.234375 275.429688 169.730469 C 273.949219 169.257812 272.902344 169.09375 272.738281 169.082031 C 272.25 169.007812 271.761719 169.035156 271.289062 169.167969 L 228.296875 180.597656 L 216.632812 136.6875 C 216.472656 136.082031 216.144531 135.535156 215.71875 135.074219 C 214.875 134.203125 213.5 132.917969 211.550781 131.808594 C 209.628906 130.699219 207.085938 129.738281 204.085938 129.738281 C 202 129.738281 199.742188 130.226562 197.480469 131.320312 C 195.21875 132.414062 192.972656 134.097656 190.738281 136.449219 C 190.5625 136.640625 190.398438 136.863281 190.265625 137.101562 C 189.558594 138.269531 188.730469 139.289062 187.769531 140.144531 C 187.605469 140.292969 187.414062 140.5 187.28125 140.679688 L 187.25 140.722656 L 190.207031 142.941406 L 192.808594 140.339844 L 192.808594 140.324219 C 191.417969 138.933594 189.203125 138.875 187.738281 140.175781 C 186.378906 141.386719 184.828125 142.261719 183.039062 142.734375 L 183.054688 142.734375 C 182.0625 142.984375 181.085938 143.117188 180.128906 143.117188 C 177.257812 143.117188 174.390625 142.039062 171.96875 140.027344 C 169.542969 138.03125 167.609375 135.132812 166.675781 131.628906 C 166.277344 130.152344 166.101562 128.6875 166.101562 127.269531 C 166.101562 124 167.0625 120.96875 168.703125 118.621094 C 170.359375 116.269531 172.617188 114.582031 175.382812 113.84375 C 176.328125 113.59375 177.289062 113.472656 178.25 113.472656 C 179.0625 113.472656 179.890625 113.5625 180.71875 113.738281 C 181.796875 113.960938 182.949219 113.695312 183.808594 112.984375 C 184.679688 112.304688 185.183594 111.226562 185.183594 110.117188 L 181.488281 110.117188 L 180.039062 113.519531 L 180.097656 113.546875 C 180.289062 113.621094 180.554688 113.695312 180.761719 113.753906 C 182.019531 114.019531 183.246094 114.496094 184.429688 115.160156 C 184.648438 115.292969 184.914062 115.410156 185.183594 115.5 C 187.769531 116.269531 190.132812 116.636719 192.304688 116.636719 C 194.921875 116.636719 197.242188 116.089844 199.195312 115.160156 C 202.132812 113.738281 204.101562 111.539062 205.355469 109.511719 C 206.613281 107.457031 207.234375 105.519531 207.542969 104.277344 C 207.691406 103.671875 207.691406 103.035156 207.53125 102.429688 L 194.921875 54.953125 L 191.359375 55.902344 L 192.304688 59.480469 L 191.359375 55.902344 " fill-opacity="1" fill-rule="nonzero"/></g><path fill="#313659" d="M 237.132812 219.851562 C 237.132812 219.851562 223.726562 225.425781 232.492188 239.605469 C 233.691406 240.816406 234.679688 242.191406 235.449219 243.6875 L 235.476562 243.730469 C 236.527344 245.816406 237.132812 248.136719 237.132812 250.589844 C 237.132812 259.785156 228.796875 267.238281 218.527344 267.238281 C 208.253906 267.238281 199.933594 259.785156 199.933594 250.589844 C 199.933594 248.136719 200.539062 245.816406 201.585938 243.730469 L 201.574219 243.730469 L 201.617188 243.6875 C 202.371094 242.191406 203.375 240.816406 204.574219 239.605469 C 213.324219 225.425781 199.933594 219.851562 199.933594 219.851562 L 151.808594 219.851562 L 151.808594 267.976562 C 151.808594 267.976562 157.378906 281.386719 171.554688 272.621094 C 172.765625 271.421875 174.140625 270.433594 175.632812 269.664062 L 175.679688 269.632812 L 175.679688 269.648438 C 177.777344 268.585938 180.082031 267.976562 182.535156 267.976562 C 191.730469 267.976562 199.179688 276.316406 199.179688 286.59375 C 199.179688 296.867188 191.730469 305.207031 182.535156 305.207031 C 180.082031 305.207031 177.777344 304.601562 175.679688 303.535156 L 175.679688 303.550781 L 175.632812 303.519531 C 174.140625 302.753906 172.765625 301.761719 171.554688 300.5625 C 157.378906 291.796875 151.808594 305.207031 151.808594 305.207031 L 151.808594 353.332031 L 285.242188 353.332031 L 285.242188 219.851562 L 237.132812 219.851562 " fill-opacity="1" fill-rule="nonzero"/><g clip-path="url(#id3)"><path fill="#ffffff" d="M 237.132812 219.851562 L 235.714844 216.4375 C 235.476562 216.539062 233.230469 217.472656 230.824219 219.660156 C 229.625 220.753906 228.382812 222.1875 227.4375 224.035156 C 226.460938 225.871094 225.8125 228.117188 225.828125 230.644531 C 225.828125 233.957031 226.90625 237.625 229.34375 241.542969 C 229.492188 241.777344 229.671875 242 229.847656 242.191406 C 230.792969 243.152344 231.578125 244.21875 232.152344 245.355469 C 232.269531 245.609375 232.402344 245.816406 232.582031 246.023438 L 232.609375 246.066406 L 235.476562 243.730469 L 234.3125 240.226562 C 233.292969 240.566406 232.464844 241.335938 232.050781 242.324219 C 231.652344 243.316406 231.695312 244.441406 232.183594 245.402344 C 232.996094 247.027344 233.4375 248.742188 233.4375 250.589844 C 233.4375 254.050781 231.886719 257.199219 229.226562 259.59375 C 226.550781 262.003906 222.769531 263.542969 218.527344 263.542969 C 214.285156 263.542969 210.515625 262.003906 207.839844 259.59375 C 205.164062 257.199219 203.628906 254.050781 203.628906 250.589844 C 203.628906 248.757812 204.070312 247.027344 204.882812 245.402344 C 205.386719 244.394531 205.414062 243.210938 204.941406 242.191406 C 204.484375 241.171875 203.566406 240.417969 202.488281 240.152344 L 202.472656 240.136719 L 201.574219 243.730469 L 204.441406 246.066406 L 204.484375 246.023438 C 204.648438 245.816406 204.78125 245.609375 204.898438 245.371094 C 205.488281 244.21875 206.257812 243.152344 207.203125 242.191406 C 207.394531 242 207.574219 241.777344 207.707031 241.542969 C 210.144531 237.625 211.238281 233.957031 211.222656 230.644531 C 211.238281 228.117188 210.589844 225.871094 209.628906 224.035156 C 208.179688 221.273438 206.140625 219.4375 204.484375 218.253906 C 202.828125 217.058594 201.527344 216.511719 201.335938 216.4375 C 200.878906 216.246094 200.421875 216.15625 199.933594 216.15625 L 151.808594 216.15625 C 150.832031 216.15625 149.886719 216.539062 149.191406 217.234375 C 148.511719 217.914062 148.113281 218.875 148.113281 219.851562 L 148.113281 267.976562 C 148.113281 268.464844 148.203125 268.9375 148.394531 269.398438 C 148.496094 269.648438 149.429688 271.882812 151.617188 274.292969 C 152.710938 275.488281 154.144531 276.730469 155.992188 277.691406 C 157.824219 278.652344 160.070312 279.304688 162.597656 279.289062 C 165.910156 279.304688 169.574219 278.210938 173.492188 275.769531 C 173.726562 275.636719 173.949219 275.460938 174.140625 275.265625 C 175.101562 274.320312 176.167969 273.550781 177.320312 272.960938 C 177.554688 272.84375 177.761719 272.707031 177.96875 272.53125 L 178.011719 272.503906 L 175.679688 269.632812 L 172.175781 270.800781 L 172.175781 270.816406 C 172.515625 271.820312 173.285156 272.648438 174.273438 273.0625 C 175.265625 273.464844 176.386719 273.417969 177.347656 272.945312 C 178.972656 272.117188 180.703125 271.6875 182.535156 271.675781 C 185.996094 271.6875 189.144531 273.226562 191.550781 275.902344 C 193.933594 278.578125 195.484375 282.347656 195.484375 286.59375 C 195.484375 290.835938 193.933594 294.621094 191.550781 297.296875 C 189.144531 299.972656 185.996094 301.496094 182.535156 301.511719 C 180.703125 301.511719 178.972656 301.066406 177.347656 300.238281 C 176.359375 299.75 175.207031 299.722656 174.199219 300.148438 C 173.195312 300.59375 172.425781 301.464844 172.132812 302.53125 L 175.679688 303.550781 L 178.011719 300.683594 L 177.96875 300.652344 C 177.761719 300.476562 177.554688 300.34375 177.320312 300.222656 C 176.179688 299.648438 175.101562 298.863281 174.140625 297.917969 C 173.949219 297.738281 173.726562 297.546875 173.492188 297.414062 C 169.574219 294.976562 165.910156 293.894531 162.597656 293.894531 C 160.070312 293.882812 157.824219 294.53125 155.992188 295.507812 C 153.226562 296.941406 151.394531 298.996094 150.210938 300.636719 C 149.015625 302.292969 148.46875 303.609375 148.394531 303.789062 C 148.203125 304.246094 148.113281 304.71875 148.113281 305.207031 L 148.113281 353.332031 C 148.113281 354.308594 148.511719 355.269531 149.191406 355.949219 C 149.886719 356.644531 150.832031 357.027344 151.808594 357.027344 L 285.242188 357.027344 C 286.21875 357.027344 287.179688 356.644531 287.859375 355.949219 C 288.554688 355.269531 288.9375 354.308594 288.9375 353.332031 L 288.9375 219.851562 C 288.9375 218.875 288.554688 217.929688 287.859375 217.234375 C 287.179688 216.539062 286.21875 216.15625 285.242188 216.15625 L 237.132812 216.15625 C 236.644531 216.15625 236.171875 216.246094 235.714844 216.4375 L 237.132812 219.851562 L 237.132812 223.546875 L 281.546875 223.546875 L 281.546875 349.636719 L 155.503906 349.636719 L 155.503906 305.207031 L 151.808594 305.207031 L 155.222656 306.625 L 153.390625 305.855469 L 155.207031 306.640625 L 155.222656 306.625 L 153.390625 305.855469 L 155.207031 306.640625 C 155.207031 306.640625 155.253906 306.566406 155.324219 306.402344 C 155.621094 305.8125 156.449219 304.394531 157.707031 303.269531 C 158.3125 302.691406 159.035156 302.207031 159.835938 301.851562 C 160.632812 301.496094 161.503906 301.289062 162.597656 301.289062 C 164.269531 301.289062 166.542969 301.820312 169.605469 303.699219 L 171.554688 300.5625 L 168.953125 303.195312 C 170.429688 304.644531 172.117188 305.871094 173.964844 306.804688 L 175.632812 303.519531 L 173.296875 306.390625 L 173.359375 306.417969 C 174.304688 307.203125 175.621094 307.453125 176.785156 307.085938 C 177.96875 306.714844 178.898438 305.753906 179.242188 304.570312 L 179.242188 304.554688 L 175.679688 303.535156 L 174.023438 306.847656 C 176.578125 308.132812 179.476562 308.902344 182.535156 308.902344 C 188.269531 308.902344 193.445312 306.269531 197.050781 302.21875 C 200.6875 298.152344 202.875 292.625 202.875 286.59375 C 202.875 280.558594 200.6875 275.03125 197.050781 270.980469 C 193.445312 266.914062 188.269531 264.28125 182.535156 264.28125 C 179.476562 264.28125 176.578125 265.050781 174.007812 266.335938 L 175.679688 269.648438 L 179.179688 268.464844 C 178.796875 267.3125 177.878906 266.425781 176.710938 266.085938 C 175.546875 265.746094 174.289062 265.996094 173.359375 266.765625 L 173.296875 266.808594 L 175.632812 269.664062 L 173.949219 266.382812 C 172.117188 267.3125 170.429688 268.539062 168.96875 269.988281 L 171.554688 272.621094 L 169.605469 269.484375 C 166.542969 271.378906 164.269531 271.894531 162.597656 271.894531 C 161.3125 271.894531 160.308594 271.601562 159.40625 271.128906 C 158.058594 270.433594 156.953125 269.265625 156.214844 268.242188 C 155.859375 267.726562 155.578125 267.269531 155.414062 266.957031 C 155.324219 266.796875 155.265625 266.675781 155.238281 266.601562 L 155.207031 266.542969 L 153.019531 267.476562 L 155.222656 266.558594 L 155.207031 266.542969 L 153.019531 267.476562 L 155.222656 266.558594 L 151.808594 267.976562 L 155.503906 267.976562 L 155.503906 223.546875 L 199.933594 223.546875 L 199.933594 219.851562 L 198.5 223.269531 L 199.238281 221.492188 L 198.484375 223.253906 L 198.5 223.269531 L 199.238281 221.492188 L 198.484375 223.253906 C 198.484375 223.253906 198.574219 223.296875 198.734375 223.371094 C 199.3125 223.667969 200.746094 224.496094 201.855469 225.738281 C 202.429688 226.359375 202.917969 227.066406 203.273438 227.867188 C 203.628906 228.679688 203.835938 229.550781 203.835938 230.644531 C 203.835938 232.332031 203.300781 234.59375 201.425781 237.652344 L 204.574219 239.605469 L 201.929688 237.019531 C 200.480469 238.480469 199.265625 240.167969 198.320312 242 L 201.617188 243.6875 L 198.75 241.351562 L 198.707031 241.410156 C 197.90625 242.386719 197.671875 243.699219 198.070312 244.898438 C 198.46875 246.097656 199.460938 247.011719 200.671875 247.324219 L 200.6875 247.324219 L 201.585938 243.730469 L 198.292969 242.074219 C 196.992188 244.632812 196.222656 247.53125 196.238281 250.589844 C 196.222656 256.328125 198.851562 261.503906 202.917969 265.109375 C 206.96875 268.746094 212.496094 270.921875 218.527344 270.933594 C 224.554688 270.921875 230.082031 268.746094 234.148438 265.109375 C 238.199219 261.503906 240.828125 256.328125 240.828125 250.589844 C 240.828125 247.53125 240.074219 244.632812 238.773438 242.074219 L 235.480469 243.730469 L 236.644531 247.25 L 236.644531 247.234375 C 237.800781 246.851562 238.6875 245.917969 239.027344 244.765625 C 239.367188 243.597656 239.113281 242.339844 238.347656 241.410156 L 238.316406 241.351562 L 235.449219 243.6875 L 238.746094 242.015625 C 237.800781 240.167969 236.570312 238.480469 235.125 237.019531 L 232.492188 239.605469 L 235.625 237.652344 C 233.734375 234.59375 233.21875 232.332031 233.21875 230.644531 C 233.21875 229.359375 233.511719 228.355469 233.984375 227.453125 C 234.679688 226.105469 235.847656 224.984375 236.882812 224.257812 C 237.386719 223.890625 237.859375 223.621094 238.167969 223.460938 C 238.316406 223.371094 238.433594 223.3125 238.507812 223.28125 L 238.566406 223.253906 L 237.652344 221.09375 L 238.554688 223.269531 L 238.566406 223.253906 L 237.652344 221.09375 L 238.554688 223.269531 L 237.132812 219.851562 L 237.132812 223.550781 L 237.132812 219.851562 " fill-opacity="1" fill-rule="nonzero"/></g><path fill="#313659" d="M 67.886719 219.644531 C 67.886719 219.644531 81.292969 214.070312 72.527344 199.894531 C 71.34375 198.664062 70.339844 197.304688 69.570312 195.8125 L 69.542969 195.753906 C 68.492188 193.667969 67.886719 191.347656 67.886719 188.90625 C 67.886719 179.710938 76.222656 172.257812 86.496094 172.257812 C 96.765625 172.257812 105.101562 179.710938 105.101562 188.90625 C 105.101562 191.347656 104.496094 193.667969 103.433594 195.753906 L 103.402344 195.8125 C 102.648438 197.304688 101.644531 198.664062 100.449219 199.894531 C 91.683594 214.070312 105.101562 219.644531 105.101562 219.644531 L 153.210938 219.644531 L 153.210938 171.503906 C 153.210938 171.503906 147.640625 158.09375 133.464844 166.863281 C 132.253906 168.058594 130.878906 169.050781 129.386719 169.820312 L 129.34375 169.863281 L 129.328125 169.847656 C 127.242188 170.898438 124.9375 171.503906 122.484375 171.503906 C 113.292969 171.503906 105.84375 163.179688 105.84375 152.90625 C 105.84375 142.617188 113.292969 134.292969 122.484375 134.292969 C 124.9375 134.292969 127.242188 134.898438 129.328125 135.949219 L 129.34375 135.933594 L 129.386719 135.976562 C 130.878906 136.730469 132.253906 137.738281 133.464844 138.933594 C 147.640625 147.703125 153.210938 134.292969 153.210938 134.292969 L 153.210938 86.152344 L 19.765625 86.152344 L 19.765625 219.644531 L 67.886719 219.644531 " fill-opacity="1" fill-rule="nonzero"/><path fill="#ffffff" d="M 67.886719 219.644531 L 69.304688 223.0625 C 69.542969 222.957031 71.789062 222.027344 74.199219 219.835938 C 75.378906 218.730469 76.621094 217.292969 77.582031 215.460938 C 78.542969 213.628906 79.207031 211.367188 79.195312 208.851562 C 79.195312 205.527344 78.101562 201.875 75.675781 197.957031 C 75.542969 197.71875 75.351562 197.496094 75.171875 197.304688 C 74.214844 196.34375 73.445312 195.265625 72.867188 194.125 C 72.765625 193.933594 72.675781 193.785156 72.542969 193.609375 L 72.5 193.550781 L 69.542969 195.753906 L 70.148438 199.40625 L 70.164062 199.40625 C 71.316406 199.210938 72.320312 198.472656 72.839844 197.421875 C 73.371094 196.375 73.371094 195.132812 72.851562 194.097656 C 72.027344 192.46875 71.582031 190.742188 71.582031 188.90625 C 71.582031 185.449219 73.121094 182.296875 75.808594 179.886719 C 78.46875 177.492188 82.253906 175.957031 86.496094 175.957031 C 90.738281 175.957031 94.519531 177.492188 97.179688 179.886719 C 99.855469 182.296875 101.394531 185.449219 101.410156 188.90625 C 101.410156 190.742188 100.949219 192.46875 100.136719 194.097656 C 99.605469 195.132812 99.605469 196.375 100.136719 197.421875 C 100.667969 198.472656 101.675781 199.210938 102.828125 199.40625 L 103.433594 195.753906 L 100.402344 193.667969 L 100.359375 193.726562 C 100.269531 193.84375 100.195312 193.992188 100.121094 194.125 C 99.53125 195.265625 98.761719 196.34375 97.816406 197.304688 C 97.625 197.496094 97.449219 197.71875 97.3125 197.957031 C 94.875 201.875 93.78125 205.527344 93.78125 208.835938 C 93.78125 211.367188 94.433594 213.628906 95.394531 215.460938 C 96.839844 218.226562 98.882812 220.058594 100.535156 221.242188 C 102.191406 222.425781 103.492188 222.972656 103.667969 223.0625 C 104.128906 223.238281 104.601562 223.339844 105.101562 223.339844 L 153.210938 223.339844 C 154.1875 223.339844 155.132812 222.941406 155.828125 222.261719 C 156.507812 221.566406 156.90625 220.621094 156.90625 219.644531 L 156.90625 171.503906 C 156.90625 171.015625 156.820312 170.542969 156.625 170.085938 C 156.507812 169.847656 155.59375 167.601562 153.40625 165.207031 C 152.296875 164.007812 150.863281 162.765625 149.03125 161.804688 C 147.195312 160.84375 144.9375 160.195312 142.421875 160.195312 C 139.097656 160.195312 135.445312 161.289062 131.515625 163.714844 C 131.292969 163.863281 131.058594 164.039062 130.863281 164.230469 C 129.917969 165.175781 128.855469 165.945312 127.703125 166.539062 C 127.511719 166.625 127.289062 166.773438 127.109375 166.90625 L 127.066406 166.953125 L 129.34375 169.863281 L 132.84375 168.695312 L 132.84375 168.679688 C 132.503906 167.660156 131.738281 166.832031 130.746094 166.433594 C 129.757812 166.019531 128.617188 166.066406 127.671875 166.550781 C 126.046875 167.367188 124.316406 167.808594 122.484375 167.808594 C 119.027344 167.808594 115.878906 166.273438 113.46875 163.59375 C 111.074219 160.917969 109.539062 157.132812 109.539062 152.90625 C 109.539062 148.664062 111.074219 144.878906 113.46875 142.203125 C 115.878906 139.527344 119.027344 137.988281 122.484375 137.988281 C 124.316406 137.988281 126.046875 138.429688 127.671875 139.246094 C 128.648438 139.730469 129.816406 139.777344 130.820312 139.332031 C 131.824219 138.890625 132.59375 138.015625 132.890625 136.96875 L 132.890625 136.953125 L 129.34375 135.933594 L 126.902344 138.710938 L 126.949219 138.757812 C 127.183594 138.964844 127.4375 139.125 127.71875 139.273438 C 128.855469 139.851562 129.917969 140.632812 130.878906 141.566406 C 131.070312 141.757812 131.292969 141.933594 131.515625 142.082031 C 135.445312 144.507812 139.097656 145.601562 142.421875 145.601562 C 144.9375 145.601562 147.195312 144.953125 149.03125 143.992188 C 151.792969 142.542969 153.625 140.5 154.808594 138.84375 C 155.992188 137.1875 156.539062 135.886719 156.625 135.710938 C 156.804688 135.253906 156.90625 134.78125 156.90625 134.292969 L 156.90625 86.152344 C 156.90625 85.191406 156.507812 84.230469 155.828125 83.535156 C 155.132812 82.855469 154.1875 82.457031 153.210938 82.457031 L 19.765625 82.457031 C 18.796875 82.457031 17.839844 82.855469 17.15625 83.535156 C 16.46875 84.230469 16.070312 85.191406 16.070312 86.152344 L 16.070312 219.644531 C 16.070312 220.621094 16.46875 221.566406 17.15625 222.261719 C 17.839844 222.941406 18.796875 223.34375 19.765625 223.34375 L 67.886719 223.34375 C 68.375 223.34375 68.847656 223.238281 69.304688 223.0625 L 67.886719 219.644531 L 67.886719 215.949219 L 23.457031 215.949219 L 23.457031 89.847656 L 149.515625 89.847656 L 149.515625 134.292969 L 153.210938 134.292969 L 149.796875 132.871094 L 151.601562 133.613281 L 149.8125 132.84375 L 149.796875 132.871094 L 151.601562 133.613281 L 149.8125 132.84375 C 149.8125 132.84375 149.769531 132.929688 149.695312 133.09375 C 149.398438 133.671875 148.570312 135.105469 147.316406 136.226562 C 146.695312 136.804688 145.984375 137.292969 145.1875 137.648438 C 144.390625 137.988281 143.503906 138.210938 142.421875 138.210938 C 140.738281 138.210938 138.460938 137.675781 135.402344 135.785156 L 133.464844 138.933594 L 136.054688 136.300781 C 134.589844 134.851562 132.90625 133.625 131.058594 132.679688 L 129.386719 135.976562 L 131.8125 133.199219 L 131.765625 133.152344 C 130.820312 132.324219 129.503906 132.03125 128.292969 132.398438 C 127.082031 132.753906 126.136719 133.714844 125.796875 134.925781 L 125.78125 134.925781 L 129.328125 135.949219 L 130.996094 132.648438 C 128.441406 131.347656 125.542969 130.59375 122.484375 130.59375 C 116.75 130.59375 111.578125 133.210938 107.96875 137.277344 C 104.335938 141.34375 102.148438 146.859375 102.148438 152.90625 C 102.148438 158.9375 104.335938 164.453125 107.96875 168.519531 C 111.578125 172.585938 116.75 175.214844 122.484375 175.203125 C 125.542969 175.203125 128.441406 174.449219 130.996094 173.148438 L 129.328125 169.847656 L 125.824219 171.015625 L 125.839844 171.015625 C 126.210938 172.15625 127.125 173.058594 128.277344 173.398438 C 129.417969 173.738281 130.671875 173.5 131.617188 172.761719 L 131.664062 172.734375 L 129.386719 169.820312 L 131.070312 173.117188 C 132.90625 172.171875 134.574219 170.945312 136.054688 169.496094 L 133.464844 166.863281 L 135.402344 170.011719 C 138.460938 168.121094 140.738281 167.585938 142.421875 167.585938 C 143.707031 167.585938 144.699219 167.898438 145.617188 168.355469 C 146.960938 169.050781 148.070312 170.21875 148.808594 171.253906 C 149.175781 171.757812 149.445312 172.230469 149.605469 172.539062 C 149.695312 172.703125 149.753906 172.820312 149.785156 172.894531 L 149.8125 172.953125 L 151.984375 172.023438 L 149.796875 172.925781 L 149.8125 172.953125 L 151.984375 172.023438 L 149.796875 172.925781 L 153.210938 171.503906 L 149.515625 171.503906 L 149.515625 215.949219 L 105.101562 215.949219 L 105.101562 219.644531 L 106.523438 216.230469 L 105.769531 218.035156 L 106.535156 216.246094 L 106.523438 216.230469 L 105.769531 218.035156 L 106.535156 216.246094 C 106.535156 216.246094 106.449219 216.199219 106.285156 216.113281 C 105.710938 215.832031 104.277344 215.003906 103.152344 213.746094 C 102.589844 213.125 102.089844 212.414062 101.75 211.617188 C 101.394531 210.820312 101.171875 209.933594 101.171875 208.835938 C 101.171875 207.167969 101.703125 204.890625 103.597656 201.828125 L 100.449219 199.894531 L 103.078125 202.480469 C 104.527344 201 105.753906 199.332031 106.699219 197.496094 L 103.402344 195.8125 L 106.449219 197.898438 L 106.492188 197.851562 C 107.203125 196.816406 107.335938 195.472656 106.847656 194.304688 C 106.34375 193.152344 105.296875 192.324219 104.054688 192.117188 L 104.039062 192.117188 L 103.433594 195.753906 L 106.730469 197.421875 C 108.03125 194.867188 108.796875 191.96875 108.796875 188.90625 C 108.796875 183.171875 106.167969 177.996094 102.117188 174.375 C 98.054688 170.75 92.527344 168.5625 86.496094 168.5625 C 80.449219 168.5625 74.9375 170.75 70.871094 174.375 C 66.808594 177.996094 64.191406 183.171875 64.191406 188.90625 C 64.191406 191.96875 64.960938 194.867188 66.246094 197.421875 L 69.542969 195.753906 L 68.9375 192.117188 C 67.664062 192.324219 66.585938 193.179688 66.113281 194.378906 C 65.625 195.574219 65.804688 196.9375 66.570312 197.957031 L 66.617188 198.015625 L 69.570312 195.8125 L 66.277344 197.484375 C 67.222656 199.332031 68.449219 201 69.898438 202.480469 L 72.527344 199.894531 L 69.394531 201.828125 C 71.273438 204.890625 71.804688 207.167969 71.804688 208.851562 C 71.804688 210.140625 71.507812 211.128906 71.035156 212.046875 C 70.339844 213.390625 69.171875 214.5 68.152344 215.238281 C 67.636719 215.59375 67.175781 215.875 66.851562 216.039062 C 66.703125 216.113281 66.570312 216.1875 66.511719 216.214844 L 66.4375 216.246094 L 67.382812 218.433594 L 66.46875 216.230469 L 66.4375 216.246094 L 67.382812 218.433594 L 66.46875 216.230469 L 67.886719 219.644531 L 67.886719 215.949219 L 67.886719 219.644531 " fill-opacity="1" fill-rule="nonzero"/></svg>