<svg xmlns="http://www.w3.org/2000/svg" xmlns:xlink="http://www.w3.org/1999/xlink" width="500" zoomAndPan="magnify" viewBox="0 0 375 374.999991" height="500" preserveAspectRatio="xMidYMid meet" version="1.0"><defs><clipPath id="id1"><path d="M 19.472656 21.15625 L 355.472656 21.15625 L 355.472656 354.15625 L 19.472656 354.15625 Z M 19.472656 21.15625 " clip-rule="nonzero"/></clipPath></defs><g clip-path="url(#id1)"><path fill="#ffffff" d="M 326.832031 235.914062 C 326.832031 240.039062 323.488281 243.386719 319.371094 243.386719 L 55.664062 243.386719 C 51.539062 243.386719 48.199219 240.039062 48.199219 235.914062 L 48.199219 59.964844 C 48.199219 55.84375 51.539062 52.5 55.664062 52.5 L 319.371094 52.5 C 323.488281 52.5 326.832031 55.84375 326.832031 59.964844 Z M 173.566406 264.402344 C 173.566406 256.691406 179.8125 250.4375 187.515625 250.4375 C 195.21875 250.4375 201.464844 256.691406 201.464844 264.402344 C 201.464844 272.117188 195.21875 278.371094 187.515625 278.371094 C 179.8125 278.371094 173.566406 272.117188 173.566406 264.402344 Z M 320.960938 21.152344 L 54.070312 21.152344 C 35.097656 21.152344 19.71875 36.546875 19.71875 55.539062 L 19.71875 262.761719 C 19.71875 281.757812 35.097656 297.152344 54.070312 297.152344 L 155.175781 297.152344 L 155.175781 336.917969 L 120.839844 336.917969 C 116.082031 336.917969 112.230469 340.78125 112.230469 345.539062 C 112.230469 350.296875 116.082031 354.160156 120.839844 354.160156 L 254.195312 354.160156 C 258.949219 354.160156 262.804688 350.296875 262.804688 345.539062 C 262.804688 340.78125 258.949219 336.917969 254.195312 336.917969 L 219.859375 336.917969 L 219.859375 297.152344 L 320.960938 297.152344 C 339.933594 297.152344 355.316406 281.757812 355.316406 262.761719 L 355.316406 55.539062 C 355.316406 36.546875 339.933594 21.152344 320.960938 21.152344 " fill-opacity="1" fill-rule="nonzero"/></g><path fill="#ffffff" d="M 260.042969 128.335938 L 221.613281 155.464844 L 252.800781 186.6875 L 235.03125 204.476562 L 203.847656 173.253906 L 176.742188 211.726562 L 133.246094 84.789062 Z M 63.125 228.445312 L 311.910156 228.445312 L 311.910156 67.4375 L 63.125 67.4375 L 63.125 228.445312 " fill-opacity="1" fill-rule="nonzero"/></svg>