<svg xmlns="http://www.w3.org/2000/svg" xmlns:xlink="http://www.w3.org/1999/xlink" width="500" zoomAndPan="magnify" viewBox="0 0 375 374.999991" height="500" preserveAspectRatio="xMidYMid meet" version="1.0"><defs><g/><clipPath id="id1"><path d="M 19.328125 19.328125 L 355.328125 19.328125 L 355.328125 355.328125 L 19.328125 355.328125 Z M 19.328125 19.328125 " clip-rule="nonzero"/></clipPath><clipPath id="id2"><path d="M 62 68 L 312.972656 68 L 312.972656 306.945312 L 62 306.945312 Z M 62 68 " clip-rule="nonzero"/></clipPath><clipPath id="id3"><path d="M 61.722656 67.695312 L 312.972656 67.695312 L 312.972656 306.945312 L 61.722656 306.945312 Z M 61.722656 67.695312 " clip-rule="nonzero"/></clipPath></defs><g clip-path="url(#id1)"><path fill="#313659" d="M 355.328125 187.328125 C 355.328125 190.078125 355.261719 192.828125 355.128906 195.574219 C 354.992188 198.320312 354.789062 201.058594 354.519531 203.796875 C 354.25 206.53125 353.914062 209.261719 353.511719 211.980469 C 353.109375 214.699219 352.636719 217.40625 352.101562 220.105469 C 351.566406 222.800781 350.960938 225.484375 350.292969 228.148438 C 349.625 230.816406 348.894531 233.464844 348.09375 236.097656 C 347.296875 238.726562 346.433594 241.339844 345.507812 243.925781 C 344.582031 246.515625 343.59375 249.078125 342.542969 251.621094 C 341.488281 254.160156 340.375 256.671875 339.199219 259.160156 C 338.023438 261.644531 336.789062 264.097656 335.492188 266.523438 C 334.195312 268.949219 332.839844 271.339844 331.429688 273.699219 C 330.015625 276.058594 328.542969 278.378906 327.015625 280.664062 C 325.488281 282.953125 323.90625 285.199219 322.269531 287.40625 C 320.628906 289.617188 318.9375 291.78125 317.195312 293.90625 C 315.449219 296.03125 313.65625 298.113281 311.808594 300.152344 C 309.960938 302.1875 308.066406 304.179688 306.125 306.125 C 304.179688 308.066406 302.1875 309.960938 300.152344 311.808594 C 298.113281 313.65625 296.03125 315.449219 293.90625 317.195312 C 291.78125 318.9375 289.613281 320.628906 287.40625 322.269531 C 285.199219 323.90625 282.953125 325.488281 280.664062 327.015625 C 278.378906 328.542969 276.058594 330.015625 273.699219 331.429688 C 271.339844 332.839844 268.949219 334.195312 266.523438 335.492188 C 264.097656 336.789062 261.644531 338.023438 259.160156 339.199219 C 256.671875 340.375 254.160156 341.488281 251.621094 342.542969 C 249.078125 343.59375 246.515625 344.582031 243.925781 345.507812 C 241.339844 346.433594 238.726562 347.296875 236.097656 348.09375 C 233.464844 348.894531 230.816406 349.625 228.148438 350.292969 C 225.484375 350.960938 222.800781 351.566406 220.105469 352.101562 C 217.40625 352.636719 214.699219 353.109375 211.980469 353.511719 C 209.261719 353.914062 206.53125 354.25 203.796875 354.519531 C 201.058594 354.789062 198.320312 354.992188 195.574219 355.128906 C 192.828125 355.261719 190.078125 355.328125 187.328125 355.328125 C 184.578125 355.328125 181.832031 355.261719 179.085938 355.128906 C 176.339844 354.992188 173.597656 354.789062 170.863281 354.519531 C 168.125 354.25 165.398438 353.914062 162.679688 353.511719 C 159.960938 353.109375 157.25 352.636719 154.554688 352.101562 C 151.859375 351.566406 149.175781 350.960938 146.507812 350.292969 C 143.839844 349.625 141.191406 348.894531 138.5625 348.09375 C 135.929688 347.296875 133.320312 346.433594 130.730469 345.507812 C 128.144531 344.582031 125.578125 343.59375 123.039062 342.542969 C 120.5 341.488281 117.984375 340.375 115.5 339.199219 C 113.015625 338.023438 110.558594 336.789062 108.132812 335.492188 C 105.710938 334.195312 103.320312 332.839844 100.960938 331.429688 C 98.601562 330.015625 96.28125 328.542969 93.992188 327.015625 C 91.707031 325.488281 89.460938 323.90625 87.25 322.269531 C 85.042969 320.628906 82.875 318.9375 80.75 317.195312 C 78.625 315.449219 76.542969 313.65625 74.507812 311.808594 C 72.46875 309.960938 70.480469 308.066406 68.535156 306.125 C 66.589844 304.179688 64.695312 302.1875 62.851562 300.152344 C 61.003906 298.113281 59.207031 296.03125 57.464844 293.90625 C 55.71875 291.78125 54.027344 289.613281 52.390625 287.40625 C 50.753906 285.199219 49.171875 282.953125 47.640625 280.664062 C 46.113281 278.378906 44.644531 276.058594 43.230469 273.699219 C 41.816406 271.339844 40.460938 268.949219 39.167969 266.523438 C 37.871094 264.097656 36.636719 261.644531 35.460938 259.160156 C 34.285156 256.671875 33.167969 254.160156 32.117188 251.621094 C 31.066406 249.078125 30.078125 246.515625 29.148438 243.925781 C 28.222656 241.339844 27.363281 238.726562 26.5625 236.097656 C 25.765625 233.464844 25.03125 230.816406 24.363281 228.148438 C 23.695312 225.484375 23.09375 222.800781 22.558594 220.105469 C 22.019531 217.40625 21.550781 214.699219 21.148438 211.980469 C 20.746094 209.261719 20.40625 206.53125 20.136719 203.796875 C 19.867188 201.058594 19.667969 198.320312 19.53125 195.574219 C 19.398438 192.828125 19.328125 190.078125 19.328125 187.328125 C 19.328125 184.578125 19.398438 181.832031 19.53125 179.085938 C 19.667969 176.339844 19.867188 173.597656 20.136719 170.863281 C 20.40625 168.125 20.746094 165.398438 21.148438 162.679688 C 21.550781 159.960938 22.019531 157.25 22.558594 154.554688 C 23.09375 151.859375 23.695312 149.175781 24.363281 146.507812 C 25.03125 143.839844 25.765625 141.191406 26.5625 138.5625 C 27.363281 135.929688 28.222656 133.320312 29.148438 130.730469 C 30.078125 128.144531 31.066406 125.578125 32.117188 123.039062 C 33.167969 120.5 34.285156 117.984375 35.460938 115.5 C 36.636719 113.015625 37.871094 110.558594 39.167969 108.136719 C 40.460938 105.710938 41.816406 103.320312 43.230469 100.960938 C 44.644531 98.601562 46.113281 96.28125 47.640625 93.992188 C 49.171875 91.707031 50.753906 89.460938 52.390625 87.253906 C 54.027344 85.042969 55.71875 82.875 57.464844 80.75 C 59.207031 78.625 61.003906 76.542969 62.851562 74.507812 C 64.695312 72.46875 66.589844 70.480469 68.535156 68.535156 C 70.480469 66.589844 72.46875 64.695312 74.507812 62.851562 C 76.542969 61.003906 78.625 59.207031 80.75 57.464844 C 82.875 55.71875 85.042969 54.027344 87.25 52.390625 C 89.460938 50.753906 91.707031 49.171875 93.992188 47.640625 C 96.28125 46.113281 98.601562 44.644531 100.960938 43.230469 C 103.320312 41.816406 105.710938 40.460938 108.136719 39.167969 C 110.558594 37.871094 113.015625 36.636719 115.5 35.460938 C 117.984375 34.285156 120.5 33.167969 123.039062 32.117188 C 125.578125 31.066406 128.144531 30.078125 130.730469 29.148438 C 133.320312 28.222656 135.929688 27.363281 138.5625 26.5625 C 141.191406 25.765625 143.839844 25.03125 146.507812 24.363281 C 149.175781 23.695312 151.859375 23.09375 154.554688 22.558594 C 157.25 22.019531 159.960938 21.550781 162.679688 21.148438 C 165.398438 20.746094 168.125 20.40625 170.863281 20.136719 C 173.597656 19.867188 176.339844 19.667969 179.085938 19.53125 C 181.832031 19.398438 184.578125 19.328125 187.328125 19.328125 C 190.078125 19.328125 192.828125 19.398438 195.574219 19.53125 C 198.320312 19.667969 201.058594 19.867188 203.796875 20.136719 C 206.53125 20.40625 209.261719 20.746094 211.980469 21.148438 C 214.699219 21.550781 217.40625 22.019531 220.105469 22.558594 C 222.800781 23.09375 225.484375 23.695312 228.148438 24.363281 C 230.816406 25.03125 233.464844 25.765625 236.097656 26.5625 C 238.726562 27.363281 241.339844 28.222656 243.925781 29.148438 C 246.515625 30.078125 249.078125 31.066406 251.621094 32.117188 C 254.160156 33.167969 256.671875 34.285156 259.160156 35.460938 C 261.644531 36.636719 264.097656 37.871094 266.523438 39.167969 C 268.949219 40.460938 271.339844 41.816406 273.699219 43.230469 C 276.058594 44.644531 278.378906 46.113281 280.664062 47.640625 C 282.953125 49.171875 285.199219 50.753906 287.40625 52.390625 C 289.613281 54.027344 291.78125 55.71875 293.90625 57.464844 C 296.03125 59.207031 298.113281 61.003906 300.152344 62.851562 C 302.1875 64.695312 304.179688 66.589844 306.125 68.535156 C 308.066406 70.480469 309.960938 72.46875 311.808594 74.507812 C 313.65625 76.542969 315.449219 78.625 317.195312 80.75 C 318.9375 82.875 320.628906 85.042969 322.269531 87.253906 C 323.90625 89.460938 325.488281 91.707031 327.015625 93.992188 C 328.542969 96.28125 330.015625 98.601562 331.429688 100.960938 C 332.839844 103.320312 334.195312 105.710938 335.492188 108.136719 C 336.789062 110.558594 338.023438 113.015625 339.199219 115.5 C 340.375 117.984375 341.488281 120.5 342.542969 123.039062 C 343.59375 125.578125 344.582031 128.144531 345.507812 130.730469 C 346.433594 133.320312 347.296875 135.929688 348.09375 138.5625 C 348.894531 141.191406 349.625 143.839844 350.292969 146.507812 C 350.960938 149.175781 351.566406 151.859375 352.101562 154.554688 C 352.636719 157.25 353.109375 159.960938 353.511719 162.679688 C 353.914062 165.398438 354.25 168.125 354.519531 170.863281 C 354.789062 173.597656 354.992188 176.339844 355.128906 179.085938 C 355.261719 181.832031 355.328125 184.578125 355.328125 187.328125 Z M 355.328125 187.328125 " fill-opacity="1" fill-rule="nonzero"/></g><g clip-path="url(#id2)"><path fill="#ffffff" d="M 187.671875 68.519531 L 226.378906 146.96875 L 312.972656 159.550781 L 250.296875 220.65625 L 265.136719 306.875 L 187.671875 266.171875 L 110.15625 306.875 L 124.949219 220.65625 L 62.324219 159.550781 L 148.914062 146.96875 Z M 187.671875 68.519531 " fill-opacity="1" fill-rule="nonzero"/></g><g clip-path="url(#id3)"><path fill="#ffffff" d="M 187.070312 67.769531 L 225.828125 146.21875 L 312.421875 158.796875 L 249.746094 219.902344 L 264.535156 306.121094 L 187.070312 265.417969 L 109.605469 306.121094 L 124.394531 219.902344 L 61.722656 158.796875 L 148.3125 146.21875 Z M 187.070312 67.769531 " fill-opacity="1" fill-rule="nonzero"/><path fill="#ffffff" d="M 187.070312 67.769531 L 225.828125 146.21875 L 312.421875 158.796875 L 249.746094 219.902344 L 264.535156 306.121094 L 187.070312 265.417969 L 109.605469 306.121094 L 124.394531 219.902344 L 61.722656 158.796875 L 148.3125 146.21875 Z M 187.070312 67.769531 " fill-opacity="1" fill-rule="nonzero"/><path fill="#ffffff" d="M 187.070312 67.769531 L 225.828125 146.21875 L 312.421875 158.796875 L 249.746094 219.902344 L 264.535156 306.121094 L 187.070312 265.417969 L 109.605469 306.121094 L 124.394531 219.902344 L 61.722656 158.796875 L 148.3125 146.21875 Z M 187.070312 67.769531 " fill-opacity="1" fill-rule="nonzero"/></g><g fill="#ffffff" fill-opacity="1"><g transform="translate(202.191229, 215.293613)"><g/></g></g></svg>