<svg xmlns="http://www.w3.org/2000/svg" xmlns:xlink="http://www.w3.org/1999/xlink" width="500" zoomAndPan="magnify" viewBox="0 0 375 374.999991" height="500" preserveAspectRatio="xMidYMid meet" version="1.0"><defs><clipPath id="id1"><path d="M 16.605469 16.605469 L 358.605469 16.605469 L 358.605469 358.605469 L 16.605469 358.605469 Z M 16.605469 16.605469 " clip-rule="nonzero"/></clipPath></defs><g clip-path="url(#id1)"><path fill="#69d957" d="M 187.605469 16.605469 C 93.316406 16.605469 16.605469 93.316406 16.605469 187.605469 C 16.605469 281.898438 93.316406 358.605469 187.605469 358.605469 C 281.898438 358.605469 358.605469 281.898438 358.605469 187.605469 C 358.605469 93.316406 281.898438 16.605469 187.605469 16.605469 Z M 263.695312 191.703125 C 262.597656 195.785156 259.984375 199.1875 256.332031 201.292969 L 165.105469 253.96875 C 162.703125 255.355469 159.972656 256.078125 157.199219 256.078125 C 148.480469 256.078125 141.390625 248.996094 141.390625 240.28125 L 141.390625 134.945312 C 141.390625 132.171875 142.121094 129.4375 143.503906 127.035156 C 147.703125 119.757812 157.796875 117.03125 165.097656 121.25 L 256.324219 173.925781 C 258.734375 175.308594 260.726562 177.316406 262.109375 179.710938 C 264.222656 183.355469 264.804688 187.621094 263.695312 191.703125 Z M 263.695312 191.703125 " fill-opacity="1" fill-rule="nonzero"/></g></svg>