<svg xmlns="http://www.w3.org/2000/svg" xmlns:xlink="http://www.w3.org/1999/xlink" width="500" zoomAndPan="magnify" viewBox="0 0 375 374.999991" height="500" preserveAspectRatio="xMidYMid meet" version="1.0"><defs><clipPath id="id1"><path d="M 9.230469 64.9375 L 288 64.9375 L 288 310.1875 L 9.230469 310.1875 Z M 9.230469 64.9375 " clip-rule="nonzero"/></clipPath><clipPath id="id2"><path d="M 9.230469 154 L 365.480469 154 L 365.480469 310.1875 L 9.230469 310.1875 Z M 9.230469 154 " clip-rule="nonzero"/></clipPath></defs><g clip-path="url(#id1)"><path fill="#29c810" d="M 259.71875 98.382812 L 129.101562 98.382812 L 115.101562 77.351562 C 113.832031 75.441406 112.351562 73.714844 110.65625 72.171875 C 108.960938 70.628906 107.101562 69.316406 105.082031 68.234375 C 103.0625 67.148438 100.941406 66.332031 98.71875 65.773438 C 96.496094 65.214844 94.238281 64.9375 91.945312 64.941406 L 37.0625 64.941406 C 36.148438 64.941406 35.242188 64.988281 34.335938 65.078125 C 33.425781 65.167969 32.527344 65.304688 31.632812 65.480469 C 30.738281 65.660156 29.855469 65.882812 28.984375 66.148438 C 28.113281 66.414062 27.257812 66.722656 26.414062 67.070312 C 25.574219 67.421875 24.75 67.8125 23.945312 68.242188 C 23.144531 68.671875 22.363281 69.140625 21.605469 69.648438 C 20.847656 70.15625 20.117188 70.699219 19.414062 71.277344 C 18.707031 71.855469 18.035156 72.46875 17.390625 73.113281 C 16.746094 73.757812 16.132812 74.433594 15.554688 75.136719 C 14.976562 75.84375 14.433594 76.574219 13.929688 77.335938 C 13.421875 78.09375 12.953125 78.875 12.523438 79.679688 C 12.09375 80.484375 11.703125 81.308594 11.355469 82.148438 C 11.007812 82.992188 10.699219 83.851562 10.433594 84.722656 C 10.167969 85.597656 9.949219 86.480469 9.769531 87.375 C 9.589844 88.269531 9.457031 89.171875 9.367188 90.078125 C 9.277344 90.988281 9.230469 91.898438 9.230469 92.808594 L 9.230469 304.613281 C 9.230469 305.21875 9.324219 305.808594 9.519531 306.386719 C 9.710938 306.960938 9.988281 307.492188 10.355469 307.972656 C 10.722656 308.457031 11.152344 308.871094 11.652344 309.214844 C 12.152344 309.558594 12.695312 309.8125 13.277344 309.976562 C 13.863281 310.140625 14.457031 310.210938 15.0625 310.179688 C 15.667969 310.152344 16.25 310.027344 16.816406 309.808594 C 17.382812 309.585938 17.894531 309.28125 18.363281 308.894531 C 18.828125 308.503906 19.21875 308.050781 19.535156 307.535156 L 106.96875 165.269531 L 281.984375 165.269531 C 282.347656 165.269531 282.710938 165.234375 283.070312 165.160156 C 283.425781 165.089844 283.777344 164.984375 284.113281 164.84375 C 284.449219 164.703125 284.773438 164.53125 285.074219 164.328125 C 285.378906 164.125 285.660156 163.894531 285.917969 163.636719 C 286.175781 163.378906 286.410156 163.097656 286.613281 162.792969 C 286.816406 162.488281 286.984375 162.167969 287.125 161.828125 C 287.265625 161.488281 287.371094 161.140625 287.441406 160.78125 C 287.515625 160.421875 287.550781 160.0625 287.550781 159.695312 L 287.550781 126.253906 C 287.546875 125.339844 287.503906 124.429688 287.414062 123.523438 C 287.324219 122.613281 287.1875 121.710938 287.011719 120.816406 C 286.832031 119.921875 286.609375 119.039062 286.34375 118.167969 C 286.078125 117.292969 285.773438 116.433594 285.421875 115.59375 C 285.074219 114.75 284.683594 113.925781 284.253906 113.121094 C 283.824219 112.316406 283.355469 111.535156 282.851562 110.777344 C 282.34375 110.019531 281.800781 109.285156 281.222656 108.582031 C 280.644531 107.875 280.035156 107.199219 279.390625 106.554688 C 278.746094 105.910156 278.070312 105.296875 277.367188 104.71875 C 276.660156 104.140625 275.929688 103.597656 275.171875 103.089844 C 274.414062 102.582031 273.636719 102.113281 272.832031 101.683594 C 272.027344 101.253906 271.207031 100.863281 270.363281 100.511719 C 269.523438 100.164062 268.664062 99.855469 267.792969 99.589844 C 266.921875 99.324219 266.039062 99.101562 265.144531 98.925781 C 264.25 98.746094 263.351562 98.609375 262.445312 98.519531 C 261.539062 98.429688 260.628906 98.386719 259.71875 98.382812 Z M 259.71875 98.382812 " fill-opacity="1" fill-rule="nonzero"/></g><g clip-path="url(#id2)"><path fill="#69d957" d="M 364.699219 156.839844 C 364.195312 155.996094 363.519531 155.332031 362.664062 154.847656 C 361.8125 154.363281 360.894531 154.121094 359.914062 154.121094 L 103.859375 154.121094 C 102.890625 154.121094 101.988281 154.355469 101.144531 154.828125 C 100.300781 155.300781 99.625 155.949219 99.117188 156.773438 L 10.054688 301.6875 C 9.796875 302.113281 9.597656 302.5625 9.457031 303.035156 C 9.316406 303.511719 9.242188 303.996094 9.230469 304.492188 C 9.21875 304.988281 9.273438 305.476562 9.394531 305.960938 C 9.511719 306.441406 9.695312 306.898438 9.933594 307.332031 C 10.175781 307.761719 10.472656 308.15625 10.816406 308.511719 C 11.164062 308.867188 11.550781 309.167969 11.976562 309.417969 C 12.40625 309.671875 12.859375 309.859375 13.335938 309.992188 C 13.8125 310.121094 14.300781 310.1875 14.796875 310.1875 L 281.984375 310.1875 C 282.484375 310.1875 282.980469 310.117188 283.464844 309.984375 C 283.949219 309.851562 284.40625 309.652344 284.835938 309.394531 C 285.269531 309.136719 285.65625 308.824219 286.003906 308.460938 C 286.351562 308.097656 286.644531 307.695312 286.882812 307.25 L 364.8125 162.335938 C 365.273438 161.472656 365.496094 160.550781 365.476562 159.570312 C 365.457031 158.59375 365.199219 157.679688 364.699219 156.839844 Z M 364.699219 156.839844 " fill-opacity="1" fill-rule="nonzero"/></g></svg>